<?xml version="1.0" encoding="UTF-8"?><svg id="b" xmlns="http://www.w3.org/2000/svg" width="43.2" height="27" viewBox="0 0 43.2 27"><g id="c"><path d="M27.38,7.21c-.15-.02-.29,0-.43.04.05-.99.08-2.04,0-2.83-.12-1.27-.9-2.62-1.65-3.17-1.19-.86-3.02-1.26-3.71-1.26s-2.52.4-3.71,1.26c-.75.54-1.53,1.89-1.65,3.17-.07.78-.05,1.84,0,2.83-.14-.04-.28-.06-.42-.04-.45.07-.76.54-.53,1.7.22,1.16.53,1.93,1.07,1.88.08,0,.14-.03.2-.05.17,1.47,1.59,3.82,2.82,4.66.31.45,1.19.83,2.22.79,1.03.03,1.91-.34,2.21-.79,1.24-.84,2.66-3.19,2.82-4.66.07.02.12.05.21.05.54.04.85-.72,1.07-1.88.22-1.16-.09-1.63-.54-1.7M30.8,18.9c-2.31-.87-5.15-2.02-5.15-2.02-.34,2.13-1.32,5.33-2.63,7.86-.03-1.34-.13-3.13-.41-5.02.34-.52.57-.95.71-1.29.17-.42-.14-.87-.59-.87h-2.27c-.46,0-.76.46-.59.87.14.34.37.77.71,1.29-.28,1.89-.38,3.69-.41,5.03-1.31-2.53-2.28-5.73-2.63-7.86,0,0-2.84,1.15-5.16,2.02-2.06.77-2.95,1.8-2.95,4.05v1.59c0,1.36,1.1,2.45,2.46,2.45h19.39c1.36,0,2.46-1.1,2.46-2.45v-1.59c0-2.25-.89-3.28-2.95-4.05M8.1,22.95c0-1.53.38-2.69,1.17-3.6,0-.24-.18-.45-.41-.45h-1.52c-.3,0-.5.33-.39.64.1.25.24.57.47.95-.15,1.16-.22,2.22-.26,3.08-.89-1.75-1.53-3.89-1.77-5.48,0,0-2.03.72-3.37,1.45-1.35.72-2.02,1.29-2.02,3.21v1.08c0,1,.76,1.81,1.69,1.81h6.59c-.11-.35-.18-.72-.18-1.11v-1.59ZM35.1,22.16c.63-.76,2.03-2.09,2.03-3.49-.3-.31-.39-.67-.41-1.13,1.62-.06,3.2-.64,3.61-1.46-1.38-1.61.49-2.75.08-5.56-.45-3-2.66-5.12-5.3-5.12-.71,0-1.29.15-1.86.73-1.19-.35-3.18,1.66-3.42,4.51-.3,3.61,1.43,4.05.01,5.48.46.78,2.04,1.36,3.66,1.42-.02.43-.11.77-.36,1.07,1.16.84,1.77,1.97,1.93,3.5.01.02.03.04.05.05M41.17,19.64c-.7-.36-1.96-.73-3-.99.56.61.97,1.52.97,2.82-.38-.99-.91-1.49-1.35-1.4-.18.72-1.6,3.16-2.7,4.19,0,.51,0,.78-.18,1.4h6.6c.93,0,1.69-.78,1.69-1.75v-1.05c0-1.86-.67-2.52-2.02-3.22M12.77,12.09c-.16.87-.4,1.44-.81,1.41-.07,0-.13-.03-.19-.05-.12,1.1-1.16,2.88-2.06,3.5-.22.34-.87.62-1.61.6-.75.03-1.39-.26-1.61-.6-.9-.63-1.94-2.4-2.06-3.5-.06.02-.11.04-.19.05-.4.03-.64-.54-.81-1.41-.17-.87.07-1.22.41-1.27.1-.02.19,0,.28.02-.18-1.55-.05-3.66,1.07-3.89.29-1.03,1.17-1.53,2.94-1.53s3.14.97,3.49,1.73c.42.9.6,2.42.5,3.67.08-.01.16-.01.24,0,.34.05.57.41.41,1.27" fill="#454547"/></g></svg>