<?xml version="1.0" encoding="UTF-8"?><svg id="b" xmlns="http://www.w3.org/2000/svg" width="27.42" height="17.38" viewBox="0 0 27.42 17.38"><g id="c"><path d="M14.1,11.83c.26-.26.39-.58.39-.95s-.13-.68-.39-.95c-.26-.26-.58-.39-.94-.39s-.69.13-.95.39c-.26.26-.39.58-.39.95s.13.69.39.95c.26.26.58.39.95.39s.68-.13.94-.39M10.18,11.83c.26-.26.39-.58.39-.95s-.13-.68-.39-.95c-.26-.26-.58-.39-.94-.39s-.69.13-.95.39c-.26.26-.39.58-.39.95s.13.69.39.95c.26.26.58.39.95.39s.68-.13.94-.39M6.27,11.83c.26-.26.4-.58.4-.95s-.13-.68-.4-.95c-.26-.26-.58-.39-.95-.39s-.69.13-.95.39c-.26.26-.4.58-.4.95s.13.69.4.95c.26.26.58.39.95.39s.69-.13.95-.39M27.13,1.75c.19-.19.28-.41.29-.65,0-.24-.08-.45-.26-.63l-.26-.26c-.16-.16-.37-.23-.61-.21-.24.02-.45.12-.63.3l-.61.61,1.46,1.46.62-.61ZM18.37,10.52l7.46-7.45-1.48-1.46-7.44,7.45-.83,1.85c-.06.12-.04.23.07.33.1.1.21.12.32.07l1.9-.79ZM21.52,17.38c.83,0,1.46-.22,1.92-.66.45-.44.68-1.08.68-1.9V6.8l-1.99,1.99v5.73c0,.33-.09.58-.27.76-.18.18-.44.27-.77.27H3.02c-.33,0-.58-.09-.76-.27-.18-.18-.27-.44-.27-.76v-7.29c0-.68.34-1.03,1.04-1.03h14.69l1.83-1.82H2.6c-.83,0-1.47.22-1.93.66-.45.44-.68,1.08-.68,1.91v7.86c0,.83.23,1.46.68,1.9.45.44,1.09.66,1.93.66h18.91Z" fill="#7494c7"/></g></svg>