<?xml version="1.0" encoding="UTF-8"?><svg id="b" xmlns="http://www.w3.org/2000/svg" width="20.98" height="20.98" viewBox="0 0 20.98 20.98"><g id="c"><path d="M10.49,19.29c4.86,0,8.81-3.94,8.81-8.81S15.35,1.68,10.49,1.68,1.68,5.63,1.68,10.49s3.94,8.81,8.81,8.81" fill="#fff"/><path d="M15.83,10.5s0-1.68-.21-2.48c-.12-.44-.46-.79-.91-.91-.8-.21-4-.21-4-.21,0,0-3.2,0-4,.21-.44.12-.79.47-.9.91-.21.8-.21,2.48-.21,2.48,0,0,0,1.68.21,2.48.12.44.46.78.9.9.8.21,4,.21,4,.21,0,0,3.2,0,4-.21.44-.12.79-.45.91-.9.21-.8.21-2.48.21-2.48M20.98,10.49c0,5.79-4.7,10.49-10.49,10.49S0,16.28,0,10.49,4.69,0,10.49,0s10.49,4.7,10.49,10.49M9.66,8.97l2.67,1.52-2.67,1.52v-3.04Z" fill="#9eb4d8"/></g></svg>