<?xml version="1.0" encoding="UTF-8"?><svg id="b" xmlns="http://www.w3.org/2000/svg" width="51.93" height="38.08" viewBox="0 0 51.93 38.08"><g id="c"><path d="M32.11,22.38s-.53.26-.64.78c-.11.52,0,1.04,0,1.04,0,0,.56-.31.65-.73.09-.41,0-1.1,0-1.1" fill="#454547"/><path d="M35.07,14.06s-.78.56-.82,1.42c-.04.86.26,1.68.26,1.68,0,0,.82-.65.86-1.34.04-.69-.3-1.77-.3-1.77" fill="#454547"/><path d="M29.51,16.59s-.56.56-.48,1.26c.08.71.43,1.33.43,1.33,0,0,.58-.63.53-1.2-.06-.56-.47-1.39-.47-1.39" fill="#454547"/><path d="M10.13,22.39s-.63-.33-1.22-.06c-.59.26-1.03.74-1.03.74,0,0,.7.33,1.18.12.47-.2,1.07-.8,1.07-.8" fill="#454547"/><path d="M13.04,5.95s-.41.77-.1,1.49c.31.72.89,1.27.89,1.27,0,0,.41-.86.17-1.43-.24-.58-.95-1.32-.95-1.32" fill="#454547"/><path d="M27.67,2.99s-.6.65-.48,1.44c.12.79.55,1.47.55,1.47,0,0,.62-.74.53-1.37s-.61-1.55-.61-1.55" fill="#454547"/><path d="M48.75,16.8s-1.07.12-1.59.95c-.52.82-.67,1.79-.67,1.79,0,0,1.16-.18,1.58-.84.42-.65.68-1.9.68-1.9" fill="#454547"/><path d="M38.65,21.61s-.63.07-.94.56c-.3.48-.4,1.06-.4,1.06,0,0,.68-.11.93-.49.25-.39.4-1.12.4-1.12" fill="#454547"/><path d="M16.16,22.6s-1.04.27-1.45,1.15c-.4.89-.42,1.87-.42,1.87,0,0,1.12-.34,1.46-1.04.33-.7.41-1.98.41-1.98" fill="#454547"/><path d="M9.34,24.82s-1.06-.18-1.79.47c-.72.65-1.14,1.54-1.14,1.54,0,0,1.17.15,1.75-.37.59-.51,1.18-1.64,1.18-1.64" fill="#454547"/><path d="M15.06,18.18s-.75-.41-1.46-.12c-.71.29-1.26.85-1.26.85,0,0,.83.41,1.4.19.57-.23,1.31-.92,1.31-.92" fill="#454547"/><path d="M11.63,14.56s-.8-.44-1.56-.13c-.76.31-1.34.91-1.34.91,0,0,.89.44,1.5.2.61-.24,1.4-.98,1.4-.98" fill="#454547"/><path d="M33.2,20.32s-.64-.35-1.24-.1c-.61.25-1.07.72-1.07.72,0,0,.71.35,1.2.16.49-.19,1.12-.78,1.12-.78" fill="#454547"/><path d="M11.45,17.66s-.5.29-.58.81c-.08.52.05,1.03.05,1.03,0,0,.53-.34.6-.75.07-.41-.07-1.08-.07-1.08" fill="#454547"/><path d="M22.06,4.83s.79-.39.96-1.16c.17-.77.02-1.56.02-1.56,0,0-.84.46-.98,1.08-.14.62,0,1.64,0,1.64" fill="#454547"/><path d="M30.76,2.64s.69-.13.99-.69c.3-.56.36-1.2.36-1.2,0,0-.75.17-.99.62-.25.44-.36,1.27-.36,1.27" fill="#454547"/><path d="M35.9,3.4s.58-.11.83-.57c.25-.47.3-1,.3-1,0,0-.62.14-.83.51-.21.37-.3,1.06-.3,1.06" fill="#454547"/><path d="M15.4,3.72s.03-.82-.53-1.31c-.56-.48-1.28-.71-1.28-.71,0,0,0,.9.45,1.29.45.39,1.36.73,1.36.73" fill="#454547"/><path d="M29.18,7.64s-.11-.51-.52-.72c-.42-.22-.89-.25-.89-.25,0,0,.14.55.47.73.33.18.95.25.95.25" fill="#454547"/><path d="M45.48,24.09s-.01-.65-.48-1c-.46-.36-1.04-.51-1.04-.51,0,0,.04.7.41.99.37.29,1.1.52,1.1.52" fill="#454547"/><path d="M41.21,16.89s.63-.48.6-1.12c-.03-.64-.35-1.22-.35-1.22,0,0-.66.55-.64,1.06.02.51.4,1.27.4,1.27" fill="#454547"/><path d="M7.28,12.37s.13-.6-.22-1.04c-.35-.44-.85-.7-.85-.7,0,0-.12.67.16,1.02.28.35.91.73.91.73" fill="#454547"/><path d="M5.09,15.17s-.02-.62-.47-.95c-.45-.34-1-.47-1-.47,0,0,.05.67.41.95.35.27,1.06.48,1.06.48" fill="#454547"/><path d="M47.67,9.98s-.45-.41-1-.33-1.03.38-1.03.38c0,0,.51.43.95.37.44-.06,1.08-.42,1.08-.42" fill="#454547"/><path d="M2.88,16.13s-.61-.07-1.02.32c-.4.39-.62.91-.62.91,0,0,.67.05,1-.26.33-.31.64-.97.64-.97" fill="#454547"/><path d="M22.14,20.67s-.61-.07-1.02.32c-.4.39-.62.91-.62.91,0,0,.67.05,1-.26.33-.31.64-.97.64-.97" fill="#454547"/><path d="M21.66,18.66s-.53-.32-1.06-.12c-.52.2-.94.58-.94.58,0,0,.59.32,1.02.17.42-.15.98-.63.98-.63" fill="#454547"/><path d="M18.15,15.41s-.62,0-.98.42c-.36.43-.52.97-.52.97,0,0,.67-.02.97-.36.29-.34.53-1.04.53-1.04" fill="#454547"/><path d="M29.37,9.12s-.62,0-.98.42c-.36.43-.52.97-.52.97,0,0,.67-.02.97-.36.29-.34.53-1.04.53-1.04" fill="#454547"/><path d="M16.41,19.87s-.43-.44-.99-.38c-.56.06-1.05.33-1.05.33,0,0,.49.46.94.42.45-.04,1.1-.37,1.1-.37" fill="#454547"/><path d="M9.18,6.29s-.23-.3-.58-.31c-.35-.01-.67.12-.67.12,0,0,.27.32.55.33.28.01.71-.14.71-.14" fill="#454547"/><path d="M35.47,20.34s.17-.61-.16-1.07c-.33-.46-.82-.76-.82-.76,0,0-.16.67.1,1.04.26.37.88.79.88.79" fill="#454547"/><path d="M34.91,25.69s.17-.61-.16-1.07c-.33-.46-.82-.76-.82-.76,0,0-.16.67.1,1.04.26.37.88.79.88.79" fill="#454547"/><path d="M40.68,11.55s-.26-.63-.86-.81c-.6-.17-1.22-.1-1.22-.1,0,0,.32.68.79.82.48.15,1.29.08,1.29.08" fill="#454547"/><path d="M48.44,24.67s.03-.49-.29-.79c-.33-.3-.75-.45-.75-.45,0,0-.01.53.25.78.26.24.8.46.8.46" fill="#454547"/><path d="M40.98,5.77s-.66.02-1.02.49c-.36.47-.51,1.05-.51,1.05,0,0,.72-.05,1.01-.42.29-.37.52-1.12.52-1.12" fill="#454547"/><path d="M47.91,14.38s-.72-.24-1.3.12c-.58.37-.98.94-.98.94,0,0,.8.23,1.27-.06.47-.29,1.01-1.01,1.01-1.01" fill="#454547"/><path d="M22.39,5.95s-.49-.44-1.08-.34c-.59.09-1.1.42-1.1.42,0,0,.55.46,1.03.39.47-.07,1.15-.46,1.15-.46" fill="#454547"/><path d="M16.29,10.35s.1-.37-.1-.65c-.2-.28-.5-.46-.5-.46,0,0-.1.41.06.63.16.23.54.48.54.48" fill="#454547"/><path d="M35.65,10.18s.1-.37-.1-.65c-.2-.28-.5-.46-.5-.46,0,0-.1.41.06.63.16.23.54.48.54.48" fill="#454547"/><path d="M41.38,25.97s.38-.38.33-.87c-.05-.48-.3-.91-.3-.91,0,0-.4.43-.36.82.04.39.33.96.33.96" fill="#454547"/><path d="M25.96,15.34s.21-.94-.34-1.62c-.54-.68-1.32-1.09-1.32-1.09,0,0-.18,1.03.25,1.58.43.55,1.41,1.13,1.41,1.13" fill="#454547"/><path d="M50.37,23.54s.2-.92-.33-1.58c-.53-.66-1.29-1.07-1.29-1.07,0,0-.18,1.01.24,1.54.42.53,1.38,1.1,1.38,1.1" fill="#454547"/><path d="M5.29,19.54s-.84-.06-1.37.5c-.52.56-.79,1.28-.79,1.28,0,0,.92.03,1.35-.41.42-.44.81-1.37.81-1.37" fill="#454547"/><path d="M7.61,9.95s-.56-.82-1.46-.89c-.9-.07-1.76.22-1.76.22,0,0,.65.87,1.37.93.72.07,1.85-.26,1.85-.26" fill="#454547"/><path d="M18.51,8.54s-.6-.47-1.27-.32c-.67.15-1.24.56-1.24.56,0,0,.67.49,1.21.37.54-.12,1.3-.61,1.3-.61" fill="#454547"/><path d="M42.74,16.85s-.43-.13-.76.1c-.33.23-.55.57-.55.57,0,0,.47.12.74-.06.27-.18.57-.61.57-.61" fill="#454547"/><path d="M47.05,23.08s-.28-.08-.5.07c-.22.15-.37.38-.37.38,0,0,.31.07.49-.05.18-.12.38-.41.38-.41" fill="#454547"/><path d="M8.33,5.05s.01-.92-.63-1.45c-.64-.53-1.44-.77-1.44-.77,0,0,.03,1,.54,1.43.51.43,1.53.79,1.53.79" fill="#454547"/><path d="M37.71,7.17s-.7.35-.85,1.05c-.15.69-.01,1.39-.01,1.39,0,0,.75-.42.87-.97.12-.55-.01-1.47-.01-1.47" fill="#454547"/><path d="M30.76,7.27s-.7.5-.73,1.28c-.04.77.23,1.51.23,1.51,0,0,.73-.58.77-1.2.04-.62-.27-1.58-.27-1.58" fill="#454547"/><path d="M19.34,11s-.74.54-.79,1.36c-.04.83.25,1.61.25,1.61,0,0,.79-.62.83-1.28.04-.66-.29-1.69-.29-1.69" fill="#454547"/><path d="M10.1,17.32s-.7-.11-1.18.32c-.48.43-.75,1.02-.75,1.02,0,0,.77.09,1.15-.25.39-.34.77-1.09.77-1.09" fill="#454547"/><path d="M6.26,24.96s-.64-.31-1.22-.04c-.58.27-1.01.76-1.01.76,0,0,.71.31,1.18.1.47-.21,1.05-.81,1.05-.81" fill="#454547"/><path d="M16.06,15.29s-.47.34-.5.87c-.03.53.16,1.03.16,1.03,0,0,.5-.39.53-.81.03-.42-.18-1.08-.18-1.08" fill="#454547"/><path d="M2.92,9.96s-.11.91.46,1.49,1.34.91,1.34.91c0,0,.08-.99-.38-1.47-.45-.48-1.43-.93-1.43-.93" fill="#454547"/><path d="M0,11.21s.3.74,1,.95c.69.2,1.42.12,1.42.12,0,0-.36-.79-.92-.97-.55-.17-1.5-.1-1.5-.1" fill="#454547"/><path d="M.27,18.93s.54.6,1.26.55c.72-.04,1.38-.37,1.38-.37,0,0-.61-.62-1.19-.6-.58.03-1.44.41-1.44.41" fill="#454547"/><path d="M34.29.32s-.73.8-.58,1.76c.15.96.67,1.79.67,1.79,0,0,.75-.9.64-1.67-.11-.77-.74-1.88-.74-1.88" fill="#454547"/><path d="M41.38,18.4s-.63.69-.5,1.52c.13.83.58,1.56.58,1.56,0,0,.65-.78.56-1.45-.1-.67-.64-1.63-.64-1.63" fill="#454547"/><path d="M48.24,10.72s-1.07.12-1.59.95c-.52.82-.67,1.79-.67,1.79,0,0,1.16-.18,1.58-.84.42-.65.68-1.9.68-1.9" fill="#454547"/><path d="M7.38,18.37s-.46.64-.27,1.32c.19.68.63,1.24.63,1.24,0,0,.47-.71.33-1.26-.14-.55-.69-1.3-.69-1.3" fill="#454547"/><path d="M11.23,24.58s-.66.65-.57,1.48c.09.83.5,1.57.5,1.57,0,0,.69-.74.62-1.4-.06-.66-.55-1.64-.55-1.64" fill="#454547"/><path d="M5.38,16.57s-.93-.13-1.54.44c-.62.58-.96,1.36-.96,1.36,0,0,1.01.1,1.51-.35.5-.45.99-1.45.99-1.45" fill="#454547"/><path d="M25.99,12.01s-.09-.82-.72-1.21c-.63-.4-1.37-.52-1.37-.52,0,0,.14.89.64,1.21.5.32,1.45.52,1.45.52" fill="#454547"/><path d="M30.74,14.33s-.64-.35-1.24-.1c-.61.25-1.07.72-1.07.72,0,0,.71.35,1.2.16.49-.19,1.12-.78,1.12-.78" fill="#454547"/><path d="M12.61,12.54s-.6-.33-1.17-.1c-.57.23-1.01.68-1.01.68,0,0,.67.33,1.12.15.46-.18,1.05-.73,1.05-.73" fill="#454547"/><path d="M18.33,10.1s-.68.06-1.02.57c-.34.51-.45,1.12-.45,1.12,0,0,.74-.1,1.01-.51.28-.41.46-1.19.46-1.19" fill="#454547"/><path d="M13.27,23.44s-.5.29-.58.81c-.08.52.05,1.03.05,1.03,0,0,.53-.34.6-.75.07-.41-.07-1.08-.07-1.08" fill="#454547"/><path d="M7.06,8.11s.53-.72.32-1.49c-.21-.77-.71-1.41-.71-1.41,0,0-.54.81-.38,1.43.16.62.77,1.48.77,1.48" fill="#454547"/><path d="M8.69,14.42s.36-.5.22-1.03c-.14-.54-.49-.98-.49-.98,0,0-.37.56-.26.99.11.43.53,1.02.53,1.02" fill="#454547"/><path d="M8.14,8.78s.59-.17.8-.69c.21-.51.2-1.08.2-1.08,0,0-.64.22-.81.63s-.19,1.14-.19,1.14" fill="#454547"/><path d="M11.41,7.47s.36-.5.22-1.03c-.14-.54-.49-.98-.49-.98,0,0-.37.56-.27.99.11.43.53,1.02.53,1.02" fill="#454547"/><path d="M17.4,5.92s.97-.48,1.17-1.43c.21-.95.03-1.91.03-1.91,0,0-1.03.57-1.21,1.32-.18.76,0,2.02,0,2.02" fill="#454547"/><path d="M31.92,4.54s.71-.35.86-1.04c.15-.69.02-1.4.02-1.4,0,0-.75.41-.88.97-.13.55,0,1.48,0,1.48" fill="#454547"/><path d="M30.63,2.94s-.15-.93-.89-1.34c-.74-.42-1.59-.51-1.59-.51,0,0,.21,1,.79,1.34.59.34,1.68.51,1.68.51" fill="#454547"/><path d="M29.17,5.87s.58-.11.83-.57c.25-.47.3-1,.3-1,0,0-.62.14-.83.51-.21.37-.3,1.06-.3,1.06" fill="#454547"/><path d="M18.82,19.57s.49-.63.33-1.34c-.17-.71-.6-1.29-.6-1.29,0,0-.51.71-.38,1.28.13.57.66,1.35.66,1.35" fill="#454547"/><path d="M19.88,9.57s.81-.4.98-1.19c.18-.79.02-1.6.02-1.6,0,0-.86.47-1.01,1.11-.15.63,0,1.69,0,1.69" fill="#454547"/><path d="M39.12,17.42s.57-.02.88-.43c.31-.41.43-.91.43-.91,0,0-.62.05-.87.37-.25.32-.44.97-.44.97" fill="#454547"/><path d="M43.87,10.65s.78-.41.97-1.23c.19-.82.07-1.65.07-1.65,0,0-.83.48-.99,1.14-.16.65-.05,1.74-.05,1.74" fill="#454547"/><path d="M41.17,9.37s.63-.18.86-.72c.23-.54.23-1.14.23-1.14,0,0-.67.22-.86.65-.19.43-.22,1.2-.22,1.2" fill="#454547"/><path d="M49.16,19.98s.55-.35.61-.93c.07-.58-.11-1.15-.11-1.15,0,0-.58.41-.64.87-.06.47.13,1.21.13,1.21" fill="#454547"/><path d="M25.05,3.27s.74-.21,1.01-.85c.27-.64.27-1.34.27-1.34,0,0-.79.26-1.02.77-.22.51-.26,1.41-.26,1.41" fill="#454547"/><path d="M15.72,3s.87-.09,1.3-.76c.43-.67.56-1.46.56-1.46,0,0-.95.14-1.3.67-.35.53-.57,1.54-.57,1.54" fill="#454547"/><path d="M9.58,5.73s.78-.54.85-1.39c.07-.86-.21-1.68-.21-1.68,0,0-.83.62-.89,1.31-.06.68.25,1.77.25,1.77" fill="#454547"/><path d="M11.16,11.27s.24-.86-.21-1.43c-.46-.58-1.14-.91-1.14-.91,0,0-.22.94.14,1.41.36.47,1.22.93,1.22.93" fill="#454547"/><path d="M15.94,11.39s-.11-.51-.52-.72c-.42-.22-.89-.25-.89-.25,0,0,.14.55.47.73.33.18.95.25.95.25" fill="#454547"/><path d="M44.44,16.26s-.11-.51-.52-.72c-.42-.22-.89-.25-.89-.25,0,0,.14.55.47.73.33.18.95.25.95.25" fill="#454547"/><path d="M32.18,7.26s-.14-.66-.68-.94c-.55-.28-1.16-.32-1.16-.32,0,0,.18.72.61.94.43.23,1.23.32,1.23.32" fill="#454547"/><path d="M33.99,9.97s-.11-.52-.53-.73c-.42-.22-.9-.25-.9-.25,0,0,.14.56.48.73.34.18.96.25.96.25" fill="#454547"/><path d="M39.94,13.89s.39-.35.37-.83c-.02-.48-.24-.91-.24-.91,0,0-.41.4-.4.78.02.38.27.95.27.95" fill="#454547"/><path d="M36.28,21.44s.39-.35.37-.83c-.02-.48-.24-.91-.24-.91,0,0-.41.4-.4.78.02.38.27.95.27.95" fill="#454547"/><path d="M42.18,11.88s.08-.52-.24-.87c-.32-.35-.76-.56-.76-.56,0,0-.07.57.18.86.25.29.81.57.81.57" fill="#454547"/><path d="M7.45,23.72s-.29-.95-1.12-1.29c-.84-.34-1.74-.32-1.74-.32,0,0,.36,1.03,1.02,1.3.67.28,1.84.31,1.84.31" fill="#454547"/><path d="M13.2,22.82s.23-1.05-.38-1.8c-.61-.76-1.47-1.22-1.47-1.22,0,0-.2,1.15.28,1.76.48.61,1.58,1.26,1.58,1.26" fill="#454547"/><path d="M7.2,16.45s.13-.6-.22-1.04c-.35-.44-.85-.7-.85-.7,0,0-.12.67.16,1.02.28.35.91.73.91.73" fill="#454547"/><path d="M14.44,21.28s.13-.6-.22-1.04c-.35-.44-.85-.7-.85-.7,0,0-.12.67.16,1.02.28.35.91.73.91.73" fill="#454547"/><path d="M5.42,6.59s.24-.57-.03-1.06c-.27-.49-.71-.84-.71-.84,0,0-.23.63-.02,1.03.21.4.76.88.76.88" fill="#454547"/><path d="M15.46,2.39s.48-.54.38-1.19c-.1-.65-.46-1.21-.46-1.21,0,0-.5.61-.42,1.13.08.52.5,1.27.5,1.27" fill="#454547"/><path d="M12.58,16.11s-.17-.43-.56-.55c-.4-.13-.82-.09-.82-.09,0,0,.2.46.52.56.32.1.86.08.86.08" fill="#454547"/><path d="M15.82,13.65s.16-.43-.05-.79c-.21-.36-.55-.61-.55-.61,0,0-.16.48,0,.77.16.29.59.63.59.63" fill="#454547"/><path d="M27.49,14.43s.22-.59-.07-1.08c-.29-.49-.75-.84-.75-.84,0,0-.22.65.01,1.05.23.4.81.87.81.87" fill="#454547"/><path d="M15.09,14.76s-.46-.06-.76.22c-.3.29-.47.67-.47.67,0,0,.5.05.74-.18.24-.23.49-.72.49-.72" fill="#454547"/><path d="M19.59,16.24s-.34-.31-.75-.25c-.41.06-.77.28-.77.28,0,0,.38.32.71.28.33-.05.81-.31.81-.31" fill="#454547"/><path d="M39,12.87s-.45-.41-1-.33-1.03.38-1.03.38c0,0,.51.43.95.37.44-.06,1.08-.42,1.08-.42" fill="#454547"/><path d="M47.06,16.84s-.45-.41-1-.33-1.03.38-1.03.38c0,0,.51.43.95.37.44-.06,1.08-.42,1.08-.42" fill="#454547"/><path d="M44.98,12.49s-.35-.5-.9-.54c-.55-.04-1.08.14-1.08.14,0,0,.4.53.85.57.44.04,1.14-.17,1.14-.17" fill="#454547"/><path d="M51.93,20.59s-.29-.54-.83-.65c-.54-.11-1.09.01-1.09.01,0,0,.34.58.77.67.43.09,1.15-.03,1.15-.03" fill="#454547"/><path d="M30.92,22.66s-.18-.36-.55-.44c-.36-.08-.73,0-.73,0,0,0,.22.39.51.46s.77,0,.77,0" fill="#454547"/><path d="M43.88,13.41s-.42,0-.66.29c-.24.29-.35.66-.35.66,0,0,.46-.01.65-.24.2-.23.36-.7.36-.7" fill="#454547"/><path d="M39.75,19.07s-.37,0-.58.25-.31.58-.31.58c0,0,.4-.01.58-.22.17-.21.32-.62.32-.62" fill="#454547"/><path d="M40.35,20.58s-.35.13-.46.44c-.11.32-.08.66-.08.66,0,0,.37-.15.46-.41.09-.25.08-.69.08-.69" fill="#454547"/><path d="M36.69,22.13s-.37,0-.58.25-.31.58-.31.58c0,0,.4-.01.58-.22.17-.21.32-.62.32-.62" fill="#454547"/><path d="M9.86,21.15s-.02-.52-.39-.8c-.38-.28-.83-.4-.83-.4,0,0,.04.56.34.79.3.23.89.4.89.4" fill="#454547"/><path d="M19.12,22.34s-.55-.28-1.06-.05c-.51.23-.9.64-.9.64,0,0,.61.28,1.03.1.41-.18.93-.7.93-.7" fill="#454547"/><path d="M6.63,13.1s-.36-.13-.66.05c-.3.18-.5.46-.5.46,0,0,.4.13.64-.02.24-.14.52-.5.52-.5" fill="#454547"/><path d="M13.89,13.74s-.21-.32-.56-.35c-.34-.03-.68.08-.68.08,0,0,.25.34.52.36.28.03.72-.1.72-.1" fill="#454547"/><path d="M27.48,10.78s-.28-.42-.74-.46c-.46-.04-.9.1-.9.1,0,0,.33.45.69.48.37.04.95-.12.95-.12" fill="#454547"/><path d="M17.37,18.08s-.29.25-.29.59c0,.35.15.67.15.67,0,0,.31-.28.31-.56,0-.28-.17-.7-.17-.7" fill="#454547"/><path d="M15.54,7.35s-.37-.1-.65.11c-.28.21-.46.51-.46.51,0,0,.41.09.63-.07.23-.16.47-.54.47-.54" fill="#454547"/><path d="M26.23,4.84s-.49-.13-.86.14c-.37.27-.6.67-.6.67,0,0,.54.12.84-.1.3-.21.62-.72.62-.72" fill="#454547"/><path d="M18.06,6.96s-.37-.1-.65.11c-.28.21-.46.51-.46.51,0,0,.41.09.63-.07.22-.16.47-.54.47-.54" fill="#454547"/><path d="M19.83,5.74s-.47.05-.7.4c-.23.36-.31.78-.31.78,0,0,.51-.07.7-.35.19-.28.32-.83.32-.83" fill="#454547"/><path d="M16.12,6.84s.1-.37-.1-.65c-.2-.28-.5-.47-.5-.47,0,0-.09.41.06.64.16.23.54.48.54.48" fill="#454547"/><path d="M26.46,8.83s.17-.61-.16-1.07c-.33-.46-.82-.76-.82-.76,0,0-.16.67.1,1.04.26.37.88.79.88.79" fill="#454547"/><path d="M24.01,6.36s.1-.37-.1-.65c-.2-.28-.5-.47-.5-.47,0,0-.09.41.06.64.16.23.54.48.54.48" fill="#454547"/><path d="M27.59,8.69s.1-.37-.1-.65c-.2-.28-.5-.47-.5-.47,0,0-.09.41.06.64.16.23.54.48.54.48" fill="#454547"/><path d="M12.74,9.51s-.29-.26-.63-.2c-.34.06-.64.24-.64.24,0,0,.32.27.6.22.28-.04.67-.27.67-.27" fill="#454547"/><path d="M25.46,9.08s-.29-.26-.63-.2c-.34.06-.64.24-.64.24,0,0,.32.27.6.22.28-.04.67-.27.67-.27" fill="#454547"/><path d="M32.17,11.03s-.17-.41-.56-.52c-.39-.11-.79-.07-.79-.07,0,0,.21.44.51.53.31.09.83.05.83.05" fill="#454547"/><path d="M45.71,26.05s.03-.49-.29-.79c-.33-.3-.75-.45-.75-.45,0,0-.01.53.25.78.26.24.8.46.8.46" fill="#454547"/><path d="M28.24,17.16s-.17-.41-.56-.52c-.39-.11-.79-.07-.79-.07,0,0,.21.44.51.53.31.09.83.05.83.05" fill="#454547"/><path d="M48.21,22.03s-.17-.41-.56-.52c-.39-.11-.79-.07-.79-.07,0,0,.21.44.51.53.31.09.83.05.83.05" fill="#454547"/><path d="M33.99,19.98s-.04-.44-.38-.67c-.34-.22-.74-.3-.74-.3,0,0,.06.48.33.66s.78.3.78.3" fill="#454547"/><path d="M33.46,25.78s-.17-.41-.56-.52c-.39-.11-.79-.07-.79-.07,0,0,.21.44.51.53.31.09.83.05.83.05" fill="#454547"/><path d="M21.11,24.4s-.17-.41-.56-.52c-.39-.11-.79-.07-.79-.07,0,0,.21.44.51.53.31.09.83.05.83.05" fill="#454547"/><path d="M39.5,20.99s-.17-.41-.56-.52c-.39-.11-.79-.07-.79-.07,0,0,.21.44.51.53.31.09.83.05.83.05" fill="#454547"/><path d="M45.22,21.26s-.02-.44-.34-.68c-.32-.24-.72-.34-.72-.34,0,0,.04.48.29.68.26.2.76.34.76.34" fill="#454547"/><path d="M32.34,16.64s-.17-.41-.56-.52c-.39-.11-.79-.07-.79-.07,0,0,.21.44.51.53.31.09.83.05.83.05" fill="#454547"/><path d="M15.44,9.31s-.29-.26-.63-.2c-.34.06-.64.24-.64.24,0,0,.32.27.6.22.28-.04.67-.27.67-.27" fill="#454547"/><path d="M35.27,12.41s-.49-.44-1.08-.34c-.59.1-1.09.42-1.09.42,0,0,.55.46,1.02.39.47-.07,1.15-.46,1.15-.46" fill="#454547"/><path d="M39.04,15.83s-.32-.28-.69-.22c-.38.06-.71.27-.71.27,0,0,.36.29.66.25.3-.04.74-.29.74-.29" fill="#454547"/><path d="M40.12,15.63s.1-.37-.1-.65c-.2-.28-.5-.46-.5-.46,0,0-.1.41.06.63.16.23.54.48.54.48" fill="#454547"/><path d="M43.93,17.77s.1-.37-.1-.65c-.2-.28-.5-.46-.5-.46,0,0-.1.41.06.63.16.23.54.48.54.48" fill="#454547"/><path d="M36.51,12.66s.14-.52-.14-.92c-.28-.4-.71-.65-.71-.65,0,0-.13.57.09.89s.75.68.75.68" fill="#454547"/><path d="M37.79,19.71s.12-.42-.11-.74c-.23-.32-.57-.53-.57-.53,0,0-.11.46.07.72.18.26.61.55.61.55" fill="#454547"/><path d="M34.22,22.32s.14-.52-.14-.92c-.28-.4-.71-.65-.71-.65,0,0-.13.57.09.89s.75.68.75.68" fill="#454547"/><path d="M28.49,21.11s.14-.52-.14-.92c-.28-.4-.71-.65-.71-.65,0,0-.13.57.09.89s.75.68.75.68" fill="#454547"/><path d="M43.86,26.11s.17-.62-.17-1.1c-.34-.48-.85-.79-.85-.79,0,0-.16.69.11,1.08.27.39.91.82.91.82" fill="#454547"/><path d="M36.23,26.5s.43-.48.34-1.06c-.09-.58-.41-1.08-.41-1.08,0,0-.45.55-.38,1.01.07.47.45,1.13.45,1.13" fill="#454547"/><path d="M37.76,10.73s.25-.29.19-.63c-.06-.34-.25-.64-.25-.64,0,0-.26.33-.22.6.04.27.28.67.28.67" fill="#454547"/><path d="M39.16,7.27s.2-.73-.2-1.29c-.4-.56-.99-.92-.99-.92,0,0-.19.81.12,1.26.31.45,1.06.95,1.06.95" fill="#454547"/><path d="M24.38,2.28s.17-.62-.17-1.09c-.34-.47-.84-.78-.84-.78,0,0-.16.68.11,1.07.27.38.9.81.9.81" fill="#454547"/><path d="M21.43,14.2s-.08-.38-.39-.53c-.31-.16-.66-.18-.66-.18,0,0,.1.4.35.53.25.13.7.18.7.18" fill="#454547"/><path d="M6.35,18.31s-.16-.43-.55-.56c-.39-.13-.81-.1-.81-.1,0,0,.19.46.5.57.31.11.85.09.85.09" fill="#454547"/><path d="M7.38,21.2s-.16-.43-.55-.56c-.39-.13-.81-.1-.81-.1,0,0,.19.46.5.57.31.11.85.09.85.09" fill="#454547"/><path d="M13.79,16.93s-.36-.13-.66.05c-.3.18-.5.46-.5.46,0,0,.4.13.64-.02.24-.14.52-.5.52-.5" fill="#454547"/><path d="M27.13,18.21s-.36-.13-.66.05c-.3.18-.5.46-.5.46,0,0,.4.13.64-.02.24-.14.52-.5.52-.5" fill="#454547"/><path d="M23.37,11.39s-.45.19-.57.62c-.12.42-.07.87-.07.87,0,0,.48-.23.58-.57.1-.34.05-.92.05-.92" fill="#454547"/><path d="M24.23,14.95s-.32.14-.41.44c-.09.31-.05.62-.05.62,0,0,.35-.16.42-.41.07-.24.04-.66.04-.66" fill="#454547"/><path d="M32.2,14.72s.23-1.05-.38-1.8c-.61-.76-1.47-1.22-1.47-1.22,0,0-.2,1.15.28,1.76.48.61,1.57,1.26,1.57,1.26" fill="#454547"/><path d="M39.96,27.09s.23-1.05-.38-1.8c-.61-.76-1.47-1.22-1.47-1.22,0,0-.2,1.15.28,1.76.48.61,1.57,1.26,1.57,1.26" fill="#454547"/><path d="M21.11,4.67s.18-.84-.3-1.44c-.49-.6-1.18-.97-1.18-.97,0,0-.16.92.22,1.41.38.49,1.26,1,1.26,1" fill="#454547"/><path d="M3.3,15.54s0-.97-.67-1.53c-.68-.56-1.53-.81-1.53-.81,0,0,.03,1.06.57,1.51.54.45,1.62.83,1.62.83" fill="#454547"/><path d="M5.48,7.34s-.76-.6-1.62-.41-1.58.71-1.58.71c0,0,.86.62,1.55.47.69-.15,1.65-.78,1.65-.78" fill="#454547"/><path d="M15.84,5.35s-.5-.75-1.33-.83-1.64.14-1.64.14c0,0,.58.79,1.25.87.66.08,1.73-.18,1.73-.18" fill="#454547"/><path d="M34.64,6.73s-.51-.32-1.02-.14-.92.54-.92.54c0,0,.57.32.98.19.41-.14.96-.59.96-.59" fill="#454547"/><path d="M36.19,7.17s-.57-.17-1.02.13c-.45.31-.74.77-.74.77,0,0,.63.16.99-.08.36-.24.77-.82.77-.82" fill="#454547"/><path d="M43.08,23.01s-.43-.13-.77.1c-.34.23-.56.58-.56.58,0,0,.48.12.75-.06.27-.18.58-.62.58-.62" fill="#454547"/><path d="M46.36,21.26s-.43-.13-.77.1c-.34.23-.56.58-.56.58,0,0,.48.12.75-.06.27-.18.58-.62.58-.62" fill="#454547"/><path d="M46.76,24.46s-.18.23-.12.5c.06.26.22.48.22.48,0,0,.18-.26.14-.47-.05-.21-.24-.5-.24-.5" fill="#454547"/><path d="M43.2,20.83s-.42.17-.54.56c-.12.39-.08.8-.08.8,0,0,.45-.2.55-.51.1-.31.07-.85.07-.85" fill="#454547"/><path d="M45.38,18.12s-.42.17-.54.56c-.12.39-.08.8-.08.8,0,0,.45-.2.55-.51.1-.31.07-.85.07-.85" fill="#454547"/><path d="M50.99,17.99s-.42.17-.54.56c-.12.39-.08.8-.08.8,0,0,.45-.2.55-.51.1-.31.07-.85.07-.85" fill="#454547"/><path d="M23.16,9.66s.16-.76-.29-1.31c-.45-.55-1.08-.88-1.08-.88,0,0-.14.84.21,1.28.35.44,1.16.91,1.16.91" fill="#454547"/><path d="M36.55,5.21s-.55-.64-1.32-.62c-.77.02-1.47.35-1.47.35,0,0,.63.67,1.24.66.61-.01,1.54-.39,1.54-.39" fill="#454547"/><path d="M40.02,2.92s-.7-.55-1.49-.38c-.79.18-1.45.66-1.45.66,0,0,.79.57,1.42.43.63-.13,1.52-.72,1.52-.72" fill="#454547"/><path d="M26.86,31.11l.1.23c.07.17.15.33.22.5.03.09.07.17.1.26l.05.12.05.15c.12.38.17.79.11,1.18-.06.39-.22.76-.43,1.06-.05.06-.09.12-.14.18.19-.12.8-.52,1.08-1.85.32-1.51-.75-3.99-.74-4.03.02.04.05.09.08.13.18.29.36.58.54.87.1.16.18.29.27.46.09.16.17.33.24.49.15.34.26.69.33,1.07.07.37.08.77.01,1.15-.07.38-.25.73-.41,1.08-.61,1.38-2.58,2.1-2.85,2.19-.27.09-.54.17-.79.24-.51.15-.98.25-1.39.35-.41.09-.78.17-1.07.24-.29.07-.52.14-.67.19-.07.03-.13.05-.16.07-.04.02-.05.03-.05.03,0,0,.46-.41,1.18-.73-.14.02-.64,0-.64,0,0,0,.36-.09.98-.29.31-.1.68-.23,1.1-.4.42-.17.87-.39,1.33-.67.45-.29.91-.66,1.21-1.13.55-.84.42-2.33.35-3.14M24.69,32.3s-.02.01-.02.02c.04-.14.08-.28.1-.43.06-.36.04-.74-.06-1.11-.05-.18-.11-.36-.19-.54-.08-.18-.18-.37-.27-.55-.19-.37-.36-.73-.53-1.09-.17-.35-.33-.7-.48-1.03-.15-.33-.29-.64-.41-.93-.12-.29-.24-.55-.33-.79-.09-.24-.17-.45-.23-.62-.06-.17-.1-.31-.13-.41-.01-.05-.02-.08-.03-.11,0-.03,0-.04,0-.04,0,0,.82,1.58.97,1.85.29.55.65,1.18,1.04,1.86.2.34.4.68.61,1.04.1.18.22.34.31.54.4.88-.26,2.26-.34,2.32M23.61,18.49c-.26-.2-.47-.34-.62-.43-.15-.09-.23-.13-.23-.13l.04-.07s.09.04.24.12c.16.08.39.21.66.39.27.19.6.43.93.76.33.33.66.76.89,1.31.11.28.18.58.21.9.02.32-.02.66-.1.99-.02.08-.05.16-.08.25-.03.08-.05.15-.08.23-.06.16-.11.31-.15.47-.1.32-.18.64-.26.98-.14.67-.06,1.37-.14,2.06-.17,1.6,1.58,4.66,1.56,4.61-.58-1.01-1.37-1.57-1.65-2.29-.28-.72-.48-1.49-.53-2.27-.05-.78.06-1.54.24-2.23.09-.35.2-.68.31-1.01.06-.16.12-.32.18-.47.03-.08.06-.15.09-.23.03-.07.05-.14.08-.21.19-.57.17-1.16,0-1.67-.17-.51-.46-.93-.75-1.26-.29-.34-.59-.59-.85-.79M48.91,20.17c-.61.31-1.37.5-1.68.22-.24-.22-.13-.52-.95-.86-.82-.35-1.68.34-2.16-.04-.48-.39-.95-.73-.95-.73,0,0,1.23-.64,1.59-1.09.36-.46-.04-.64.14-1.11.16-.42.39-.86.69-1.12-.44.15-.83.55-.93.82-.27.72.03.88-.18,1.23-.22.35-1.82.78-1.82.78,0,0-1.08-.62-1.5-.73-1.28-.34-2.02.14-2.88-.11-.86-.26-2.09-.17-2.09-.17,0,0,.95-.94,1.34-1.38.45-.51.57-1.22,1.2-1.24.76-.03,1.1-.49,1.79-.34.91.19,1.33.43,1.75.63.57.26.77.56,1.69.1.81-.4.67-.53,1.07-.9.39-.38,1.2-.56,1.2-.56,0,0-1.16.03-1.58.43-.98.93-1.05.71-2.21.35-1.3-.4-1.37-.49-.15-1.22.52-.31.65-.61.58-1.22-.06-.56.62-.77,1.51-.91.89-.14,1.57-1.42,1.08-.85-.49.57-1.28.52-2.27.65-.99.13-.84.77-1.09,1.55-.25.79-.59.63-1.03.88-.72.42-.53.86-1.74.78-1.21-.09-1.68.6-2.03,1.03-.34.43-.43-.88-.45-1.55-.01-.51.1-1.11.5-1.67.41-.59.79-.81,1.42-1.55.19-.22,2.29-.65,3.26-.7-.42-.17-1.97-.17-3,.17.46-.62.41-2.08.33-2.64-.11,1.22-.26,2.2-.7,2.72-.71.85-2.08,2.13-2.25,3.26-.09.56.03,1.45.11,1.92.07.38.22.95-.47,1.47-.69.52-.86.78-1.6.78h-1.72s.78-.39.78-.95-.57-.74-.66-1.29c-.06-.4.18-1.05.2-1.49.03-.68-.26-1.19.33-1.73.41-.37,2.39-1.03,3.46-2.18.04-.04.07-.08.1-.12-.03.02-.07.04-.11.07-.28.16-.72.38-1.18.59-.01,0-.02.01-.04.02-.42.19-.85.38-1.16.52-.19.08-.59-1.15-.09-2.7-.34.73-.4,1.43-.4,1.96h0v.04c0,.51.05.85-.04.9-.78.39-1.19.46-1.38,1.26-.1.45.17,1.26-.13,1.86-.3.6-.12,1.39,0,1.7.17.43.17.85-.23,1.22-.34.31-.7.15-1.21.55-.61.48-.59.99-.89,1.25-.3.26-.67.4-.86.95-.19.53-.23.97-.53,1.32-.3.35-.89.65-1.1.97-.18.28-.78,1.45-1.29.33-.52-1.12-.65-1.47-.52-2.63.13-1.16-.11-1.47.33-2.24.33-.56,1.14-1.21,1.65-1.55.38-.25.57-.53.65-.91,0,0,0,0,0,0,.03-.14.04-.29.04-.46,0-.61-.07-1.79.65-2.59.8-.9,2.25-1.92,2.62-2.39.39-.5.7-1.48.97-2.37,0,0,0-.01,0-.02.21-.67.39-1.3.59-1.64.38-.67,1.13-1.07,1.53-1.31.49-.29,2.19-.73,2.19-.73,0,0-1.37.03-2.31.39-.59.23-1.33.92-1.75,1.03-.43.11-1.09-.13-1.37-.42-.38-.39-.65-1.23-.89-1.69.18.62.14,1.39.57,1.87.34.38.76.5,1.05.83.45.5.06,2.24-.65,3.28-.98,1.44-2.56,2.2-2.83,2.33-.47.23-1.67-.23-.95-3.1-1.29,3.15.35,3.35.12,4.03-.23.67-.16,1.33-.25,2.02-.09.69-.58,1.11-1.23,1.24-.65.13-.95.28-1.25.99-.22.52-.17,1.68-.17,1.68,0,0-.55-.85-.76-1.21-.3-.5-.99-.84-1.02-1.42-.03-.53-.03-1.15-.4-1.81-.4-.7-1.06-.93-1.15-1.67-.09-.73-.53-.99.37-.99s1.45-.32,1.75-.86c.26-.46.32-1.01.32-1.67,0-.33-.03-.86.62-1.16.65-.3,1.1-.18,1.59-.11.19.03.9-.03,1.38-.5.36-.36,1.41-.58,1.41-.58,0,0-.94-.18-1.38.03-.16.08-.46.6-.76.65-.36.06-.49-.19-1.18-.14-.69.04-.8.13-1.15-.66-.39-.88-.33-1.25-.07-1.68.26-.43.26-.71-.09-1.44-.08-.17-.12-.24-.12-.24,0,.04.25.73.12,1.11-.17.52-.82.65-.56,1.25.26.6.3,1.25.21,1.51-.08.26-.43,1.14-1.09.55-.44-.4-.32-1-.59-1.42-.42-.66-1.34-.59-1.34-.59,0,0,.86.2,1.15.79.23.47-.07.86.34,1.4.32.41.92.27.96,1.09.04.82-.04,1.38-.61,1.64-.56.26-1.67.36-2.28.24-.44-.08-1.21-.3-1.6-1.21-.4-.92.01-1.8-1.32-2.56-.94-.53-1.2-.49-1.82-1.45-.47-.73-.43-2.18-.43-2.18,0,0-.16.69-.16,1.42s.28,1.31.95,1.62c.65.3.34,1.27-.36,1.35-.74.08-1.38-.96-1.42-1.03.03.09.52,1.61,1.52,1.4,1.03-.22.42-.36,1.06-.6.83-.32,1.08.27,1.29.98.2.67-.13,1.41.63,2.03.86.7,1.26.62,1.31,1.35.04.73-.04,1.26.43,1.65.48.39.56.26.65,1.47.08,1.21.9,1.64,1.34,2.63.4.91.76,1.35.81,1.42-.08-.07-.8-.66-1.33-1.07-.56-.43-1.34-.73-1.42-1.34-.09-.6-.69-1.38-1.04-1.55-.34-.17-1.16-.26-1.59-.26s-1.13-.04-.91-.6c.35-.88-.47-1.44-.91-1.83-.41-.37-.02-1.78.01-1.9-.02.04-.1.24-.18.51,0,0,0,0,0,0-.01.03-.02.07-.03.1-.16.49-.3,1.14-.13,1.34.3.35.7.66.78,1.05.12.56-.03,1.09-.66,1.06-1.21-.05-1.47-.22-1.72-.69-.26-.47-.14-1.25-.57-1.64-.43-.39-.71-.45-.59-1.17.1-.59.4-.41.78-1.11.49-.91,1.39-.5,1.39-.5,0,0-.4-.43-1.01-.26-.54.15-.86.66-.86.66,0,0-.51.54-.78-.34-.24-.81-.72-1.09-1.14-1.19-.73-.18-1.57.59-1.8-.24-.32-1.14.04-1.28-1.16-1.97-1.21-.69.55.26.63,1.08s-.09,1.45.43,1.62c.95.32,1.23-.21,1.9-.02.49.14,1.01.72,1.01,1.58s.09,1.03.35,1.55c.26.52,1.14,1.25-.23.72-.96-.37-1.11-.65-1.92-.56-.82.09-1.34.49-1.81-.24-.47-.73-.86-.47-.78-1.47.03-.34-.05-.61-.21-.83,0-.01-.02-.02-.03-.03-.25-.33-.66-.53-1.08-.64,0,0,0,0,0,0-.1-.02-.2-.04-.29-.06-.8-.13-1.37-1.37-1.37-1.37,0,0,.09,1.25.82,1.72.73.47,1.39,0,1.48.69.09.69-.31.99.29,1.51.36.32.47.68.1,1.12-.61.72-1.12,1.06-1.83.63-.88-.53-1.38.04-1.9.29-1.25.59-1.86-.18-1.97-.33.1.16.71,1.05,1.81.74,1.21-.34,1.03-.55,1.71-.42.47.09.8.83,1.64.39.89-.48.86-1.14,1.72-1.14s1.16.01,2.11.14c.95.13,1.73.78,2.29,1.34.56.56.5,1.28,1.88,1.45,1.38.17,2.03.51,2.82.45.58-.04.93-.09,1.38,1.12.55,1.48,2.07,2.2,2.8,2.93.73.73.6,1.21.86,2.07.26.86.39,2.72.43,2.85.04.13-.56.69-.78-.04-.21-.73-.21-.95-.82-1.29-.44-.25-1.24-.6-1.7-.99-.02-.01-.04-.03-.05-.04-.14-.12-.24-.26-.28-.39-.17-.56.09-1.34-1.25-1.72-1.34-.39-1.9-.04-2.37-1.08-.47-1.03-.73-1.36-1.42-1.7-.69-.34-1.54-.91-1.6-1.06-.05-.15.05-.68-.36-1.35-.45-.73-.98-.84-1.67-.83-.61,0-1.58-.63-1.58-.63,0,0,.29.43.89.75.81.43,1.2.13,1.71.66.4.41.36,1.52-.2,1.95-.56.43-.84.65-1.25.43-.44-.24-.69-.67-1.17-.74-.48-.07-.59.11-1.15-.55-.6-.71-1.2-1.53-1.83-1.47-1.24.12-1.92-.53-1.96-.57.03.04.5.76.81.86,1.01.34,1.69.07,1.95.59.26.52.49,1.03.49,1.03,0,0-.52.26-1.07.37h0s-.03,0-.05,0c-.38.07-.78.05-1-.19-.56-.6-.7-1.24-1.65-.93-.95.3-1.64.69-2.33.39-.69-.3.47.56,1.34.3.86-.26,1.57-.36,1.75.17.2.58.45.79,1.05.85,1.41.13,1.39.24.39,1.17-.89.82-.86,1.05-2.14.63-.53-.17-1.54.26-1.61.29.06-.01.82-.18,1.32-.01.52.17.45.34,1.35.36,1.02.02,1.14-.75,1.64-1.03.42-.24.85-.81.98-1.37.13-.56.62-.57,1.31-.36.69.22.52.99,1.47.99s.78-.54,1.6-.88c.82-.35.99-.24,1.49.32.81.91,1.34,1.05,1.72,1.68.43.71.54,1.16,1.1,1.29.56.13.99.17.43.73-.56.56-1.16,1.25-1.64.86-.48-.39-.99-.86-1.47-.04-.47.82-.78,1.29-1.12,1.34-.35.04-2.01.23-2.26-.38-.26-.6-.38-1.54-1.16-1.3-.78.23-2.06.01-2.13,0,.05.03,1.01.56,1.59.47.6-.09.74-.21.95.3.17.42-.05.93.65,1.08,1.18.25,1.29.26,1.29.26,0,0-1.17,1.09-2.08.92-.91-.17-1.51-1.29-2.3-.65-.78.64-1.31,1.2-1.35,1.24.07-.05,1.15-.84,1.84-1.03.75-.21.71.76,1.61.96.43.1.97.08,1.59-.4.64-.49.85-1.02,1.59-1.02.91,0,.92-.31,1.3-.74.39-.43.37-.68.82-.5,1.13.44,1.28.56,1.8-.09.52-.65.8-1.6,1.58-.78.78.82.48.85,1.13,1.23.65.39,1.16.58,1.45,1.6.01.04.03.09.04.13h0s.02.09.03.13c.22.84.31,1.35.64,1.68.44.43.97.69,1.49,1.94.52,1.25.52,1.98.35,2.89-.18.97-.47.84-.5,1.57-.01.35.08.51.11.85.01.13.01.3,0,.51-.02.2-.05.36-.09.49-.11.36-.3.53-.52.85-.06.09-.12.18-.17.26-.07.12-.14.23-.2.34-.04.08-.09.15-.12.22.07-.07.17-.17.31-.31.12-.13.28-.29.45-.47.17-.18.89-.61,1.16-.75.73-.37,1.3-1.51,1.33-1.53-.03.11-.07.21-.11.31-.16.4-.39.74-.63,1.04-.24.3-.49.55-.74.77-.24.22-.48.39-.7.54-.22.14-.42.26-.58.34-.17.09-.3.15-.39.18-.09.04-.14.06-.14.06l-.02-.03c-.23.39-.44.67-.85.77-.69.17-.99.9-2.07.78-1.08-.13-.59-.33-1.85-.24-.88.07-1.77.32-1.77.32,0,0,2.76.09,4.96.09.57,0,1.14-.15,1.47-.13.25.02.52.09.99-.22.47-.3.65-.29.96-.25.3.04,1.45-.32.7.2-.66.46-.78.55-.79.57.04-.02.77-.32,1.16-.39.37-.07.52.06.77-.04.52-.21.61-.3.77-.4.13-.08.24-.04.54-.04s.36.29.22.44c-.13.14-.43.45-.43.45,0,0,.33-.03.52-.19.52-.43.48-.92.99-.92s.12-.05.9.13c.78.17.6.44,1.21.61.42.12,1.21.19,1.21.19,0,0-.31-.2-.46-.3-.47-.35-.32-.44.24-.35.56.08.6-.04.99.21.39.26.81.21,1.08.27.4.09.61.35,1.16.38.54.03,1.49-.1,1.49-.1,0,0-1.49-.06-1.95-.35s-1.04-.9-1.56-1.02c-.52-.12-1.38-.11-1.84-.63-.46-.52-1.2-.77-1.2-1.29s.14-.52.07-1.27c-.06-.56-.39-.41-.41-1.11-.02-.92.21-.66.23-1.52.03-1.27-.98-.98-.86-2.18.11-1.21-.29-1.32.4-2.01.69-.69,2.87-1.21,3.16-1.51.45-.46.46-.85,1.61-1.31,1.15-.46.98.17,2.07.4.99.21,1.82.17,2.3-.1h0s0,0,0,0c.05-.03.1-.06.14-.09.46-.34.68-.48,1.22-.62.27-.07.59-.22,1.16.35.47.47,1.46.51,2.2.54.02,0,.04,0,.07,0h0c.29.01.54.03.69.07.75.22,1.02.45,1.05.48-.02-.04-.28-.49-.83-.82-.58-.35-1.42-.04-1.83-.15-.4-.11-.95-.42-1.35-.82s-.75-.23-.75-.23c0,0,.02-.63.57-.69.52-.06.74.39,1.25.54.75.22,1.8-.26,2.58-.26.64,0,1.3.28,1.34.29-.02-.03-.23-.34-.96-.62-1.13-.44-1.11.22-2.26.22s-.92-.63-1.84-.63-1.21.34-1.61.75c-.4.4-.29.86-1.38.86s-2.24-.34-2.24-.34c0,0-.14-.58.6-.92.75-.35.99-.48,1.39-.88.4-.4.42-.83,1.19-.94.34-.05,1.04-.23,1.04-.23-.88.18-1.58-.48-2.73,1.12-.4.56-1.04.37-1.49.49-.35.09-.75.38-1.11.7-.02.01-.04.03-.05.05-.1.09-.19.18-.28.26-.4.4-.86.52-1.38.98-.52.46-.65.58-1.04.71-.43.14-.92-.02-1.34,0-.41.01-.52.14-1.04.32-.15.05-.29.04-.4-.02-.26-.13-.35-.48-.15-.72.09-.11.16-.22.22-.33h0c.15-.27.3-.59.69-1.1.12-.16.24-.29.36-.39-.12.08-.26.18-.43.31-.24.18-.52.41-.83.7-.3.29-.62.63-.91,1.05-.14.21-.27.44-.39.68-.06.13-.11.25-.16.38-.05.13-.4,1.69-.25,3.73-.06-.19-.35-1.28-.38-1.48-.07-.34-.08-.68-.05-1.01.03-.33.1-.65.2-.94.05-.15.1-.29.16-.43.06-.14.13-.27.19-.4.13-.26.29-.49.45-.71.32-.42.68-.76,1-1.04.33-.28.63-.5.88-.67.51-.34.83-.49.83-.49l.02.03c.07-.05.12-.08.14-.1,1.17-1.07.03-1.66.89-2.18.86-.52,1.38-.43,2.34-.64.49-.11,1.32-.52,1.7-.65.39-.13,2.42.41,3.06.32.65-.09,2.13-.39,2.84-.21.95.25,2.27,1.71,2.7,1.89.43.17,1.32-.21,1.8-.17.47.04.78.34.78.78s.09.99.35,1.38c.26.39.32.4.32,1.01s-.49,1.41-.49,1.41c0,0,.37-.26.67-1.08.3-.82-.16-1.38-.42-1.72-.26-.34.04-1.03.04-1.03.59.3,1.66.16,1.97-.04.43-.29.49-.31,1.39-1.12-.9.34-.79.32-1.34.6" fill="#454547"/></g></svg>