<?xml version="1.0" encoding="UTF-8"?><svg id="b" xmlns="http://www.w3.org/2000/svg" width="41.85" height="31.57" viewBox="0 0 41.85 31.57"><g id="c"><path d="M23.68,9.55c-.54,0-.88-.29-.88-1.06V2.6c0-.77.34-1.06.88-1.06s.88.29.88,1.06v5.88c0,.77-.34,1.06-.88,1.06M23.68,11.09c1.66,0,2.57-.99,2.57-2.71V2.71c0-1.72-.91-2.71-2.57-2.71s-2.57.99-2.57,2.71v5.67c0,1.72.91,2.71,2.57,2.71M15.89,10.93h1.77l2.65-9.3V.15h-5.08v1.54h3.42l-2.76,9.24Z" fill="#454547"/><path d="M23.25,26.33c0,.33-.27.59-.59.59h-3.46c-.33,0-.59-.27-.59-.59v-.36c0-.33.27-.59.59-.59h.96v-4.17l-.94.93c-.23.22-.61.06-.61-.26v-.88c0-.18.07-.35.2-.47l1.31-1.21c.11-.1.26-.16.41-.16h.59c.33,0,.59.27.59.59v5.61h.96c.33,0,.59.27.59.59v.36ZM39.53,23.82h-10.08v5.43c0,.43-.35.77-.77.77s-.77-.35-.77-.77v-12.4c0-1.28-1.04-2.33-2.33-2.33h-9.3c-1.28,0-2.33,1.04-2.33,2.33v12.4c0,.43-.35.77-.77.77s-.77-.35-.77-.77v-8.53H2.33c-1.28,0-2.33,1.04-2.33,2.33v6.2c0,1.28,1.04,2.32,2.33,2.32h37.2c1.28,0,2.32-1.04,2.32-2.32v-3.1c0-1.28-1.04-2.33-2.32-2.33" fill="#454547"/></g></svg>