<?xml version="1.0" encoding="UTF-8"?><svg id="b" xmlns="http://www.w3.org/2000/svg" width="46.5" height="27" viewBox="0 0 46.5 27"><g id="c"><path d="M3.3,16.74c.07-.01.15,0,.21.02-.02-.39-.03-.8,0-1.13.05-.61.42-1.26.76-1.52.55-.41,1.4-.6,1.72-.6s1.17.19,1.72.6c.35.26.71.91.76,1.52.03.34.02.74,0,1.14.07-.02.14-.03.22-.02.22.03.37.26.26.82-.11.56-.26.93-.53.91-.02,0-.03-.02-.05-.02-.08.7-.74,1.77-1.33,2.18-.15.22-.57.4-1.06.38-.49.02-.91-.16-1.05-.38-.59-.4-1.26-1.48-1.33-2.18-.02,0-.02.02-.05.02-.26.02-.42-.35-.53-.91-.11-.56.04-.78.26-.82M0,25.05v.73c0,.67.56,1.22,1.25,1.22h9.5c.69,0,1.25-.54,1.25-1.22v-.73c0-1.29-.5-1.95-1.5-2.43-1-.49-2.5-.97-2.5-.97-.18,1.08-.66,2.33-1.32,3.41-.03-.56-.08-1.21-.18-1.89.17-.26.28-.47.35-.64.08-.21-.07-.43-.29-.43h-1.12c-.22,0-.38.22-.29.43.07.17.18.38.35.64-.1.68-.15,1.33-.18,1.88-.67-1.08-1.14-2.33-1.32-3.41,0,0-1.5.49-2.5.97-1,.49-1.5,1.14-1.5,2.43M10.44,17.85c-.01.06-.03.1-.04.15h3.35c.69,0,1.25-.54,1.25-1.22v-.73c0-1.29-.5-1.95-1.5-2.43-1-.49-2.5-.97-2.5-.97-.15.9-.52,1.92-1.03,2.87,0,.1.01.2.02.31.05.06.1.12.14.18.34.49.44,1.1.3,1.84M9.55,14.08c.14-.22.24-.4.3-.55.08-.21-.07-.43-.29-.43h-.74c.28.27.54.6.74.98M6.04,8.56c.11.56.26.93.53.91.02,0,.03-.02.05-.02.08.7.74,1.77,1.33,2.18.15.22.57.4,1.05.38.49.02.91-.16,1.06-.38.59-.4,1.25-1.48,1.33-2.18.02,0,.03.02.05.02.26.02.42-.35.53-.91.11-.56-.05-.78-.26-.82-.07-.01-.15,0-.22.02.02-.39.02-.8,0-1.14-.05-.61-.42-1.26-.76-1.52-.55-.41-1.4-.6-1.72-.6s-1.17.19-1.72.6c-.35.26-.71.91-.76,1.52-.03.34-.02.74,0,1.13-.07-.02-.14-.03-.21-.02-.22.03-.37.26-.26.82M43.47,17.56c-.11.56-.26.93-.53.91-.02,0-.03-.02-.05-.02-.08.7-.74,1.77-1.33,2.18-.15.22-.57.4-1.06.38-.49.02-.91-.16-1.05-.38-.59-.4-1.25-1.48-1.33-2.18-.02,0-.02.02-.05.02-.27.02-.42-.35-.53-.91-.11-.56.05-.78.27-.82.07-.01.14,0,.22.02-.02-.39-.02-.8,0-1.14.05-.61.42-1.26.76-1.52.55-.41,1.4-.6,1.72-.6s1.17.19,1.72.6c.35.26.71.91.77,1.52.03.34.02.74,0,1.13.07-.02.14-.03.21-.02.22.03.37.26.27.82M45,22.62c-1-.49-2.5-.97-2.5-.97-.18,1.08-.66,2.33-1.32,3.41-.03-.56-.08-1.2-.18-1.88.17-.26.28-.47.35-.64.09-.21-.07-.43-.29-.43h-1.12c-.23,0-.37.22-.29.43.07.17.18.38.35.64-.1.68-.15,1.33-.18,1.89-.66-1.09-1.14-2.34-1.32-3.41,0,0-1.5.49-2.5.97-1,.49-1.5,1.14-1.5,2.43v.73c0,.67.56,1.22,1.25,1.22h9.5c.69,0,1.25-.54,1.25-1.22v-.73c0-1.29-.5-1.95-1.5-2.43M27.02,13.5h-7.54c-1.02,0-1.77.67-2.06,1.5-1.43,4.2-2.45,6.3-3.88,10.5-.28.83.86,1.5,2.56,1.5h14.3c1.7,0,2.84-.67,2.56-1.5-1.43-4.2-2.45-6.3-3.88-10.5-.28-.83-1.04-1.5-2.05-1.5M25.61,3.05c-.07,0-.13.02-.19.04.02-.42.03-.88,0-1.22-.05-.54-.37-1.11-.67-1.34-.48-.37-1.22-.53-1.5-.53s-1.02.17-1.5.53c-.3.23-.62.8-.67,1.34-.03.34-.02.8,0,1.22-.06-.02-.13-.05-.2-.04-.19.03-.33.23-.23.72.09.49.23.82.46.8.02,0,.03-.02.04-.02.07.62.65,1.61,1.17,1.97.13.19.49.35.92.33.43.01.79-.15.92-.33.52-.36,1.1-1.35,1.17-1.97.02,0,.02.02.04.02.23.02.37-.31.46-.8.1-.49-.04-.69-.23-.72M27.19,8.14c-.87-.43-2.19-.86-2.19-.86-.16.94-.57,2.04-1.15,2.99-.02-.55-.07-1.19-.16-1.84.15-.23.24-.42.31-.57.07-.19-.06-.38-.25-.38h-.98c-.2,0-.33.2-.26.38.06.15.16.34.31.57-.09.65-.14,1.29-.16,1.84-.58-.96-.99-2.05-1.15-3,0,0-1.31.43-2.19.86-.88.43-1.31,1.01-1.31,2.14v.64c0,.59.49,1.07,1.1,1.07h8.31c.61,0,1.09-.48,1.09-1.07v-.64c0-1.14-.44-1.71-1.31-2.14M36.37,16.01c.04-.06.09-.12.14-.18,0-.11,0-.21.02-.31-.5-.95-.88-1.97-1.03-2.87,0,0-1.5.49-2.5.97-1,.49-1.5,1.14-1.5,2.43v.73c0,.67.56,1.22,1.25,1.22h3.35c-.01-.05-.03-.1-.04-.15-.14-.74-.04-1.35.3-1.84M37.68,13.1h-.74c-.23,0-.37.22-.29.43.06.15.16.33.3.55.2-.39.45-.71.74-.98M40.47,8.56c-.11.56-.26.93-.53.91-.02,0-.03-.02-.05-.02-.08.7-.74,1.77-1.33,2.18-.15.22-.57.4-1.06.38-.49.02-.91-.16-1.05-.38-.59-.4-1.25-1.48-1.33-2.18-.02,0-.02.02-.05.02-.27.02-.42-.35-.53-.91-.11-.56.05-.78.27-.82.07-.01.14,0,.22.02-.02-.39-.02-.8,0-1.14.05-.61.42-1.26.76-1.52.55-.41,1.4-.6,1.72-.6s1.17.19,1.72.6c.35.26.71.91.77,1.52.03.34.02.74,0,1.13.07-.02.14-.03.21-.02.22.03.37.26.27.82" fill="#454547"/></g></svg>