<?xml version="1.0" encoding="UTF-8"?><svg id="a" xmlns="http://www.w3.org/2000/svg" width="170mm" height="31.03mm" viewBox="0 0 481.89 87.96"><path d="M257.42,69.58l2.64,10.84,2.72-10.76h2.58l2.76,10.74,2.56-10.82h2.58l-3.94,14.28h-2.42l-2.9-11.24-2.86,11.24h-2.34l-4.1-14.28h2.72Z" fill="#b5b5b6"/><path d="M277.03,69.58v2.26h-2.36v-2.26h2.36ZM276.99,73.46v10.4h-2.28v-10.4h2.28Z" fill="#b5b5b6"/><path d="M281.6,73.46v1.52c.47-.64.99-1.11,1.57-1.4.58-.29,1.2-.44,1.87-.44,2.32,0,3.48,1.28,3.48,3.84v6.88h-2.28v-6.52c0-.84-.15-1.43-.46-1.77s-.76-.51-1.36-.51c-.4,0-.77.07-1.11.21s-.63.33-.87.57-.43.52-.57.83c-.14.31-.21.64-.21.99v6.2h-2.26v-10.4h2.2Z" fill="#b5b5b6"/><path d="M293.05,73.46v1.52c.47-.64.99-1.11,1.57-1.4.58-.29,1.2-.44,1.87-.44,2.32,0,3.48,1.28,3.48,3.84v6.88h-2.28v-6.52c0-.84-.15-1.43-.46-1.77s-.76-.51-1.36-.51c-.4,0-.77.07-1.11.21s-.63.33-.87.57-.43.52-.57.83c-.14.31-.21.64-.21.99v6.2h-2.26v-10.4h2.2Z" fill="#b5b5b6"/><path d="M304.62,69.58v2.26h-2.36v-2.26h2.36ZM304.58,73.46v10.4h-2.28v-10.4h2.28Z" fill="#b5b5b6"/><path d="M309.18,73.46v1.52c.47-.64.99-1.11,1.57-1.4.58-.29,1.2-.44,1.87-.44,2.32,0,3.48,1.28,3.48,3.84v6.88h-2.28v-6.52c0-.84-.15-1.43-.46-1.77-.31-.34-.76-.51-1.36-.51-.4,0-.77.07-1.11.21s-.63.33-.87.57c-.24.24-.43.52-.57.83-.14.31-.21.64-.21.99v6.2h-2.26v-10.4h2.2Z" fill="#b5b5b6"/><path d="M320.71,84.66c.12.56.36.95.71,1.17.35.22.93.33,1.73.33.61,0,1.11-.12,1.48-.36s.64-.61.81-1.1c.17-.49.25-1.17.25-2.04v-.7c-.37.53-.84.94-1.4,1.22s-1.19.42-1.9.42c-1.4,0-2.48-.46-3.24-1.38-.76-.92-1.14-2.19-1.14-3.82s.41-2.86,1.24-3.82c.83-.96,1.93-1.44,3.32-1.44,1.31,0,2.37.53,3.18,1.58v-1.26h2.22v8.84c0,2-.39,3.44-1.16,4.33-.77.89-1.99,1.33-3.66,1.33-1.51,0-2.64-.26-3.39-.79-.75-.53-1.2-1.36-1.33-2.51h2.28ZM325.71,78.28c0-1.08-.23-1.9-.68-2.45-.45-.55-1.12-.83-2-.83-.83,0-1.47.29-1.94.87-.47.58-.7,1.42-.7,2.51s.22,1.92.67,2.51c.45.59,1.07.89,1.87.89.88,0,1.56-.28,2.05-.83.49-.55.73-1.34.73-2.35v-.32Z" fill="#b5b5b6"/><path d="M355.57,69.58h9.5v2.08h-7.08v3.8h6.68v2.1h-6.68v4.22h7.46l-.28,2.08h-9.6v-14.28Z" fill="#b5b5b6"/><path d="M366.73,73.46h2.68l2.12,3.32,2.28-3.32h2.38l-3.38,4.9,3.7,5.5h-2.64l-2.48-3.8-2.52,3.8h-2.48l3.78-5.4-3.44-5Z" fill="#b5b5b6"/><path d="M377.86,73.46h2.22v1.44c.43-.57.92-1.01,1.47-1.31.55-.3,1.19-.45,1.91-.45s1.37.13,1.92.39c.55.26,1,.63,1.37,1.11.37.48.64,1.06.82,1.73.18.67.27,1.42.27,2.25s-.11,1.6-.32,2.29c-.21.69-.52,1.27-.91,1.76-.39.49-.87.86-1.43,1.12-.56.26-1.19.39-1.9.39-.56,0-1.11-.11-1.64-.32-.53-.21-1.03-.61-1.5-1.18v5.06h-2.28v-14.28ZM380.12,78.84c0,.68.07,1.24.22,1.69.15.45.34.8.59,1.07s.53.45.86.56c.33.11.67.16,1.03.16s.72-.07,1.04-.2c.32-.13.6-.35.84-.64.24-.29.43-.67.56-1.14.13-.47.2-1.03.2-1.7s-.07-1.25-.21-1.71c-.14-.46-.33-.83-.56-1.12-.23-.29-.5-.49-.81-.61-.31-.12-.63-.18-.96-.18-.81,0-1.48.27-2.01.8-.53.53-.79,1.37-.79,2.52v.5Z" fill="#b5b5b6"/><path d="M399.03,80.78c-.19,1.08-.65,1.92-1.38,2.51-.73.59-1.79.89-3.16.89-1.65,0-2.91-.48-3.77-1.43-.86-.95-1.29-2.3-1.29-4.03,0-.89.12-1.69.37-2.38.25-.69.59-1.28,1.04-1.75.45-.47.98-.83,1.6-1.08s1.3-.37,2.05-.37c.8,0,1.49.12,2.08.37s1.07.59,1.46,1.04.67.98.86,1.6c.19.62.28,1.31.28,2.07v1h-7.46c.03.95.27,1.71.72,2.3.45.59,1.14.88,2.06.88.72,0,1.26-.14,1.62-.42s.6-.68.72-1.2h2.2ZM396.95,77.64c0-.85-.2-1.53-.6-2.02-.4-.49-1.04-.74-1.92-.74s-1.48.25-1.92.75c-.44.5-.69,1.17-.76,2.01h5.2Z" fill="#b5b5b6"/><path d="M403.38,73.46v1.54c.36-.55.79-.97,1.3-1.26.51-.29,1.05-.44,1.62-.44.23,0,.42,0,.57.02.15.01.3.03.45.06l-.26,2.08c-.15-.04-.31-.07-.48-.08-.17-.01-.35-.02-.54-.02-.43,0-.8.07-1.12.21-.32.14-.59.32-.81.55-.22.23-.39.48-.5.77-.11.29-.17.58-.17.87v6.1h-2.26v-10.4h2.2Z" fill="#b5b5b6"/><path d="M408.29,75.26v-1.8h1.64v-2.8h2.26v2.8h2.58v1.8h-2.58v5.44c0,.53.11.92.33,1.16.22.24.54.36.97.36.23,0,.44-.01.65-.04.21-.03.41-.07.61-.14l.34,1.7c-.64.21-1.33.32-2.08.32-1.15,0-1.95-.3-2.4-.89-.45-.59-.68-1.48-.68-2.67v-5.24h-1.64Z" fill="#b5b5b6"/><path d="M424.07,71.68h-4.52v-2.1h11.44v2.1h-4.5v12.18h-2.42v-12.18Z" fill="#b5b5b6"/><path d="M437.04,82.5c-.39.47-.86.85-1.42,1.16-.56.31-1.24.46-2.04.46-.49,0-.95-.06-1.38-.19s-.8-.32-1.11-.57c-.31-.25-.56-.58-.74-.97-.18-.39-.27-.86-.27-1.39,0-.72.16-1.3.48-1.75.32-.45.74-.8,1.25-1.05.51-.25,1.09-.43,1.73-.53.64-.1,1.28-.16,1.92-.19l1.54-.08v-.44c0-.79-.19-1.33-.57-1.63-.38-.3-.88-.45-1.49-.45-.71,0-1.23.12-1.57.36-.34.24-.56.59-.67,1.04l-2.08-.22c.19-1.01.65-1.75,1.38-2.22s1.74-.7,3.02-.7c.83,0,1.51.11,2.05.32.54.21.97.51,1.29.88s.54.82.67,1.33c.13.51.19,1.08.19,1.69v6.5h-2.18v-1.36ZM435.54,79c-.68.04-1.23.11-1.65.22-.42.11-.74.24-.97.41s-.38.36-.45.58c-.07.22-.11.46-.11.71,0,.45.14.81.43,1.06.29.25.71.38,1.27.38,1,0,1.74-.25,2.22-.76.48-.51.72-1.19.72-2.06v-.6l-1.46.06Z" fill="#b5b5b6"/><path d="M443.85,69.58v14.28h-2.28v-14.28h2.28Z" fill="#b5b5b6"/><path d="M455.46,80.78c-.19,1.08-.65,1.92-1.38,2.51-.73.59-1.79.89-3.16.89-1.65,0-2.91-.48-3.77-1.43-.86-.95-1.29-2.3-1.29-4.03,0-.89.12-1.69.37-2.38.25-.69.59-1.28,1.04-1.75.45-.47.98-.83,1.6-1.08s1.3-.37,2.05-.37c.8,0,1.49.12,2.08.37s1.07.59,1.46,1.04.67.98.86,1.6c.19.62.28,1.31.28,2.07v1h-7.46c.03.95.27,1.71.72,2.3.45.59,1.14.88,2.06.88.72,0,1.26-.14,1.62-.42s.6-.68.72-1.2h2.2ZM453.38,77.64c0-.85-.2-1.53-.6-2.02-.4-.49-1.04-.74-1.92-.74s-1.48.25-1.92.75c-.44.5-.69,1.17-.76,2.01h5.2Z" fill="#b5b5b6"/><path d="M459.82,73.46v1.52c.47-.64.99-1.11,1.57-1.4.58-.29,1.2-.44,1.87-.44,2.32,0,3.48,1.28,3.48,3.84v6.88h-2.28v-6.52c0-.84-.15-1.43-.46-1.77s-.76-.51-1.36-.51c-.4,0-.77.07-1.11.21s-.63.33-.87.57-.43.52-.57.83c-.14.31-.21.64-.21.99v6.2h-2.26v-10.4h2.2Z" fill="#b5b5b6"/><path d="M468.01,75.26v-1.8h1.64v-2.8h2.26v2.8h2.58v1.8h-2.58v5.44c0,.53.11.92.33,1.16.22.24.54.36.97.36.23,0,.44-.01.65-.04s.41-.07.61-.14l.34,1.7c-.64.21-1.33.32-2.08.32-1.15,0-1.95-.3-2.4-.89-.45-.59-.68-1.48-.68-2.67v-5.24h-1.64Z" fill="#b5b5b6"/><path d="M23.14,59.36H0v-1.46c2.14,0,3.62-.58,4.45-1.74.83-1.16,1.24-3.24,1.24-6.23v-31.32c0-3.06-.39-5.16-1.18-6.3-.79-1.14-2.29-1.71-4.52-1.71v-1.46h18.94c5.43,0,9.7,1.12,12.82,3.36,3.11,2.24,4.67,5.2,4.67,8.87,0,5.39-3.37,9.18-10.1,11.38v.21c3.82.77,6.94,2.46,9.35,5.08,2.41,2.61,3.62,5.62,3.62,9.02,0,3.71-1.48,6.69-4.44,8.93-2.96,2.24-6.86,3.36-11.72,3.36ZM12.33,11.07v21.28h5.19c3.63,0,6.52-.95,8.67-2.85,2.15-1.9,3.22-4.46,3.22-7.68,0-3.4-1.05-6.04-3.15-7.92-2.1-1.88-5.07-2.83-8.91-2.83h-5.02ZM17.09,34.27h-4.76v14.73c0,3.25.36,5.47,1.07,6.66.72,1.19,2.09,1.78,4.12,1.78h4.16c2.92,0,5.3-.98,7.14-2.93,1.84-1.95,2.77-4.57,2.77-7.86,0-3.74-1.32-6.74-3.97-8.99-2.65-2.25-6.16-3.38-10.53-3.38Z" fill="#6b93ce"/><path d="M76.84,43.95c0,4.68-1.62,8.58-4.86,11.71-3.24,3.13-7.29,4.69-12.14,4.69s-8.9-1.56-12.14-4.69c-3.24-3.13-4.86-7.03-4.86-11.71s1.61-8.67,4.84-11.79c3.22-3.13,7.28-4.69,12.16-4.69s8.93,1.56,12.16,4.69c3.22,3.13,4.84,7.06,4.84,11.79ZM70.38,43.97c0-4.43-.94-8-2.83-10.72-1.88-2.71-4.45-4.07-7.71-4.07s-5.82,1.33-7.71,3.99-2.83,6.26-2.83,10.8.93,8.02,2.8,10.68c1.87,2.66,4.45,3.99,7.73,3.99s5.86-1.34,7.73-4.03c1.87-2.69,2.8-6.23,2.8-10.63Z" fill="#6b93ce"/><path d="M88.88,60.35c-2.43,0-4.51-.81-6.25-2.42-1.74-1.61-2.61-3.56-2.61-5.84s.75-3.96,2.25-5.37,4.54-2.76,9.14-4.05c2.88-.8,4.82-1.48,5.82-2.05v-2.31c0-2.25-.63-4.07-1.88-5.46-1.26-1.38-2.94-2.08-5.05-2.08-1.91,0-3.61.6-5.09,1.8-1.48,1.2-2.53,2.83-3.13,4.88l-1.58-.43c.63-2.88,1.99-5.19,4.09-6.94,2.1-1.74,4.56-2.61,7.38-2.61,3.34,0,6.04,1.01,8.11,3.02,2.07,2.01,3.1,4.8,3.1,8.37v13.31c0,1.88.12,3.16.36,3.83.24.67.71,1.01,1.39,1.01.46,0,.83-.19,1.11-.58.29-.39.61-1.19.98-2.42h1.5c-.14,1.94-.75,3.48-1.82,4.62s-2.48,1.71-4.22,1.71c-2.54,0-4.3-1.47-5.27-4.41-1.54,1.68-2.91,2.84-4.11,3.47s-2.61.94-4.24.94ZM97.23,53.07v-10.53c-.88.37-2.17.84-3.85,1.41-3.11,1.06-5.1,2.11-5.97,3.15-.87,1.04-1.31,2.45-1.31,4.22,0,1.54.46,2.88,1.39,4,.93,1.13,2.03,1.69,3.32,1.69,1.17,0,2.4-.38,3.68-1.13,1.28-.76,2.2-1.69,2.74-2.8Z" fill="#6b93ce"/><path d="M121.09,27.47v6.72c2.85-2.48,5.07-4.22,6.66-5.22,1.58-1,2.9-1.5,3.96-1.5,1.97,0,3.87.81,5.69,2.44l-.03.07c-1.2,2.81-4.35,4.15-7.25,3.19-.96-.32-1.78-.48-2.44-.48-1.77,0-3.97,1.26-6.59,3.77v17.07c0,1.72.36,2.87,1.07,3.47.71.6,2.08.9,4.11.9v1.46h-16.4v-1.46c2.17,0,3.59-.34,4.26-1.03.67-.69,1.01-2.33,1.01-4.94v-16.96c0-2.15-.36-3.53-1.09-4.16-.73-.63-2.5-.95-5.33-.95v-1.46l10.87-.94h1.5Z" fill="#6b93ce"/><path d="M165.94,4.31h1.46v49.06c0,1.71.37,2.9,1.11,3.56.74.66,2.1.99,4.07.99v1.46h-18.07c-5.57,0-9.97-1.53-13.21-4.58-3.24-3.05-4.86-6.91-4.86-11.56,0-4.37,1.42-8.08,4.26-11.15,2.84-3.07,6.27-4.6,10.3-4.6,3.22,0,6.71,1.26,10.45,3.77V12.18c0-2.08-.27-3.5-.81-4.24-.54-.74-1.64-1.11-3.3-1.11h-1.76v-1.46l10.36-1.07ZM161.45,53.24v-18.71c-1.2-1.63-2.6-2.9-4.22-3.83-1.61-.93-3.22-1.39-4.82-1.39-2.83,0-5.11,1.16-6.85,3.49-1.74,2.33-2.61,5.36-2.61,9.1,0,4.82,1.19,8.71,3.57,11.64,2.38,2.94,5.72,4.41,10,4.41,1.74,0,3-.37,3.77-1.11s1.16-1.94,1.16-3.6Z" fill="#6b93ce"/><path d="M207.35,27.23v11.03h-1.51c-.66-2.87-1.93-5.14-3.79-6.81-1.87-1.67-4.09-2.5-6.68-2.5-3.1,0-5.63,1.21-7.58,3.62-1.96,2.41-2.93,5.55-2.93,9.4,0,4.25,1.16,7.93,3.47,11.03,2.31,3.1,5.06,4.65,8.25,4.65,2.12,0,4.23-.57,6.31-1.72,2.08-1.15,3.87-2.74,5.37-4.79v2.29c-3.39,4.6-7.99,6.89-13.79,6.89-4.63,0-8.4-1.46-11.31-4.39-2.92-2.93-4.37-6.74-4.37-11.42s1.57-8.88,4.72-12.24c3.15-3.36,6.95-5.04,11.4-5.04,1.98,0,4.19.4,6.64,1.21,1.06.34,1.79.52,2.2.52.89,0,1.6-.57,2.11-1.72h1.51Z" fill="#fff"/><path d="M234.74,52.82v-15.45c0-2.07-.58-3.73-1.72-4.96-1.15-1.24-2.67-1.86-4.57-1.86-1.75,0-3.32.45-4.72,1.36-1.4.9-2.85,2.43-4.38,4.59v17.14c0,1.61.37,2.72,1.12,3.33.75.6,2.11.91,4.09.91v1.47h-16.76v-1.47c2.38-.06,3.91-.45,4.57-1.16.66-.72.99-2.33.99-4.83V11.16c0-1.9-.34-3.16-1.01-3.78-.68-.62-2.19-.93-4.55-.93v-1.46l10.08-1.08h1.46v29.56c2.01-2.3,3.83-3.91,5.45-4.85,1.62-.93,3.45-1.4,5.5-1.4,3.04,0,5.54.98,7.5,2.93,1.96,1.96,2.93,4.59,2.93,7.9v13.81c0,2.44.33,4.06.99,4.83.66.78,2.01,1.17,4.05,1.17v1.47h-16.25v-1.47c2.13,0,3.53-.33,4.2-.99.67-.66,1.01-2.01,1.01-4.06" fill="#fff"/><path d="M264.37,53v-10.6c-.89.37-2.18.85-3.88,1.42-3.13,1.06-5.13,2.12-6.01,3.17-.88,1.05-1.31,2.46-1.31,4.24,0,1.55.47,2.9,1.4,4.03.93,1.14,2.04,1.7,3.34,1.7,1.18,0,2.41-.38,3.71-1.14,1.29-.76,2.21-1.7,2.76-2.82M255.97,60.33c-2.44,0-4.54-.81-6.29-2.44-1.75-1.62-2.63-3.58-2.63-5.88s.75-3.99,2.26-5.41c1.51-1.42,4.57-2.78,9.2-4.07,2.9-.8,4.86-1.49,5.86-2.07v-2.33c0-2.27-.63-4.1-1.89-5.5-1.27-1.39-2.96-2.09-5.09-2.09-1.93,0-3.63.6-5.13,1.81-1.49,1.21-2.54,2.84-3.15,4.91l-1.59-.43c.63-2.9,2.01-5.23,4.12-6.98,2.11-1.75,4.59-2.63,7.43-2.63,3.36,0,6.08,1.01,8.17,3.04,2.08,2.03,3.12,4.83,3.12,8.43v13.4c0,1.9.12,3.18.37,3.86.24.68.71,1.01,1.4,1.01.46,0,.88-.19,1.17-.58.29-.39.68-1.2.99-2.43h1.46c-.15,1.95-.76,3.51-1.83,4.66-1.08,1.15-2.49,1.72-4.24,1.72-2.56,0-4.33-1.48-5.3-4.44-1.55,1.69-2.93,2.86-4.14,3.49-1.21.63-2.63.95-4.27.95" fill="#fff"/><path d="M287.52,27.23v6.51h.17c1.29-1.98,2.95-3.56,4.98-4.74,2.03-1.18,4.07-1.77,6.14-1.77,2.27,0,4.29.63,6.06,1.87,1.77,1.25,3.02,2.97,3.77,5.15,3.33-4.68,7.18-7.02,11.55-7.02,3.04,0,5.57.94,7.58,2.82,2.01,1.88,3.02,4.45,3.02,7.72v15.71c0,1.69.37,2.84,1.11,3.42.74.59,2.11.88,4.1.88v1.55h-16.55v-1.55c2.27,0,3.72-.37,4.35-1.1.63-.73.95-2.36.95-4.88v-14.8c0-2.01-.6-3.59-1.81-4.73-1.21-1.15-2.86-1.72-4.96-1.72-3.28,0-6.22,2.01-8.83,6.03v16.73c0,1.75.37,2.93,1.12,3.55.75.62,2.11.92,4.09.92v1.55h-16.42v-1.55c2.36,0,3.81-.37,4.38-1.12.56-.75.84-2.37.84-4.86v-14.46c0-2.06-.62-3.72-1.85-4.95-1.23-1.23-2.83-1.85-4.78-1.85-1.7,0-3.35.55-4.98,1.64-1.62,1.09-2.97,2.56-4.03,4.4v16.99c0,1.6.39,2.72,1.16,3.35.78.63,2.16.94,4.14.94v1.47h-16.59v-1.55c2.3,0,3.76-.36,4.37-1.08.62-.72.93-2.04.93-3.96v-18.53c0-1.61-.34-2.77-1.01-3.49-.67-.72-1.79-1.08-3.34-1.08h-1.94v-1.47l10.77-.95h1.51Z" fill="#fff"/><path d="M345.15,34.82v19.56c2.45,2.59,5.33,3.88,8.64,3.88,2.79,0,5.13-1.31,7.02-3.92,1.89-2.61,2.83-5.86,2.83-9.74,0-4.19-.94-7.66-2.83-10.39-1.89-2.73-4.28-4.09-7.19-4.09s-5.76,1.56-8.47,4.7M345.15,27.23v5.26c1.99-1.93,3.79-3.28,5.42-4.07,1.63-.79,3.45-1.19,5.46-1.19,4.06,0,7.42,1.54,10.1,4.63,2.67,3.09,4.01,6.97,4.01,11.66s-1.47,8.83-4.42,12.02c-2.95,3.19-6.66,4.78-11.12,4.78-3.08,0-6.24-1.23-9.46-3.71v20.56c0,2.13.37,3.53,1.1,4.2.73.68,2.1,1.01,4.12,1.01v1.46h-16.72v-1.46c2.15,0,3.6-.3,4.35-.91.75-.6,1.12-1.76,1.12-3.45v-43.52c0-2.1-.32-3.44-.95-4.01-.63-.58-2.14-.86-4.52-.86v-1.47l10-.95h1.51Z" fill="#fff"/><path d="M414.98,43.84c0-4.46-.95-8.05-2.85-10.79-1.9-2.73-4.48-4.1-7.76-4.1s-5.86,1.34-7.76,4.02c-1.9,2.67-2.84,6.3-2.84,10.87s.94,8.07,2.82,10.75c1.88,2.68,4.47,4.01,7.78,4.01s5.9-1.35,7.78-4.06c1.88-2.7,2.83-6.27,2.83-10.7M421.49,43.82c0,4.71-1.63,8.64-4.89,11.79-3.26,3.15-7.33,4.72-12.22,4.72s-8.96-1.57-12.22-4.72c-3.26-3.15-4.89-7.08-4.89-11.79s1.62-8.73,4.87-11.87c3.25-3.15,7.33-4.72,12.24-4.72s8.99,1.57,12.24,4.72c3.25,3.15,4.87,7.1,4.87,11.87" fill="#fff"/><path d="M432.33,27.23v6.25c3.65-4.16,7.41-6.25,11.29-6.25,3.02,0,5.53,1.03,7.54,3.09,2.01,2.06,3.02,4.77,3.02,8.13v14.11c0,2.16.36,3.58,1.08,4.27.72.69,2.13,1.03,4.22,1.03v1.47h-16.68v-1.47c2.07,0,3.48-.27,4.24-.8.76-.53,1.14-1.56,1.14-3.09v-16.36c0-2.19-.65-3.93-1.96-5.22-1.31-1.29-2.98-1.94-5.02-1.94-2.93,0-5.89,2.04-8.88,6.12v15.29c0,2.59.33,4.24,1,4.94.67.71,2.08,1.06,4.21,1.06v1.47h-16.46v-1.47c2.38,0,3.85-.38,4.4-1.15.55-.76.82-2.38.82-4.86v-17.64c0-1.87-.33-3.11-.99-3.7-.66-.59-2.07-.88-4.22-.88v-1.47l9.74-.95h1.51Z" fill="#fff"/><path d="M480.25,27.23v9.61h-1.77c-.29-2.41-1.15-4.33-2.59-5.75-1.44-1.42-3.18-2.13-5.22-2.13-1.55,0-2.8.39-3.75,1.16-.95.78-1.42,1.81-1.42,3.1s.44,2.38,1.31,3.34c.88.96,2.78,2.12,5.71,3.47,3.79,1.72,6.3,3.38,7.52,4.96,1.22,1.58,1.83,3.48,1.83,5.69,0,2.62-.98,4.88-2.93,6.79-1.95,1.91-4.27,2.87-6.94,2.87-1.38,0-3.2-.5-5.47-1.51-1.24-.55-2.06-.82-2.46-.82-.55,0-1.01.2-1.38.6-.37.4-.59.91-.65,1.51h-1.51v-10.64h1.51c.55,2.8,1.75,5.02,3.62,6.67,1.87,1.65,4.01,2.47,6.42,2.47,1.55,0,2.85-.52,3.9-1.55s1.57-2.32,1.57-3.84-.48-2.74-1.45-3.82c-.96-1.08-3.06-2.32-6.27-3.74-3.62-1.58-6-3.07-7.15-4.45-1.15-1.38-1.72-3.05-1.72-5,0-2.44.94-4.55,2.82-6.32,1.88-1.77,4.11-2.65,6.7-2.65,1.21,0,2.52.29,3.92.86,1.01.4,1.82.6,2.46.6.83,0,1.45-.49,1.85-1.47h1.51Z" fill="#fff"/><path d="M365.12,5.51c.17-3,1.47-5.51,1.47-5.51-1.41,9.4,7.24,9.27,12.93,11.24,4.44,1.54,7.32,3.19,8.66,7.52,0,.01.01.02.01.03h0c.6,1.98.63,4.21-.22,6.58.03-5.25-5.08-7.5-10.14-9.07-.2-.07-.4-.13-.6-.19-2.87-.86-5.65-1.53-7.43-2.44-.61-.31-1.12-.66-1.6-1.02-.48-.37-.89-.78-1.24-1.19-1.55-1.83-1.95-3.99-1.84-5.95" fill="#28def4"/><path d="M366.46,14.01c.33.38.71.75,1.15,1.1.46.35.96.69,1.55.99,1.73.88,4.43,1.53,7.21,2.37.2.06.39.11.59.18,4.55,1.41,9.13,3.39,9.77,7.7.08,1.18-.08,2.42-.55,3.72.02-4.53-4.38-6.48-8.76-7.84-.17-.06-.35-.11-.52-.16-2.47-.74-4.88-1.33-6.42-2.11-.53-.27-.97-.57-1.38-.88-.42-.32-.77-.67-1.08-1.03-1.05-1.24-1.49-2.67-1.58-4.05" fill="#6e78d8"/><path d="M384.88,30.51c-.3-1.99-1.7-3.31-3.52-4.29-1.17-.63-2.52-1.12-3.87-1.53-.14-.05-.29-.09-.45-.13-.19-.06-.38-.11-.57-.17-.38-.11-.74-.21-1.11-.32-1.48-.42-2.83-.82-3.78-1.31-.45-.23-.83-.49-1.17-.75-.34-.26-.62-.54-.87-.83.07,1.04.4,2.29,1.2,3.23.12.14.24.27.38.4.13.13.27.25.43.37.31.24.64.47,1.04.67.72.37,1.7.68,2.78.99.67.2,1.36.39,2.07.6.13.04.27.07.4.12.19.06.38.12.58.19.07.02.13.05.2.07.12.04.24.09.36.13.08.03.17.07.25.1.1.04.2.08.3.12.09.04.19.08.28.12.08.04.17.07.25.11.1.05.21.09.31.14.06.03.12.06.18.09.28.14.54.28.8.44.3.18.58.36.85.55,0,0,.02.02.03.02.13.09.25.19.37.28.01.01.02.02.03.03.12.1.24.2.35.31.58.55,1.02,1.17,1.26,1.85.13.38.22.78.22,1.2.35-.98.47-1.92.41-2.81" fill="#00788d"/><path d="M382.64,57c-.75-.58-1.12-1.73-1.12-3.45v-21.43c0-.29-.16-.56-.41-.71-.11-.07-.23-.14-.35-.2-.85-.45-1.83-.81-2.8-1.11-.11-.04-.21-.07-.32-.1-.14-.04-.27-.08-.41-.12-.27-.08-.53-.15-.8-.23-.31-.09-.6-.18-.89-.26-.72-.22-1.36-.43-1.85-.68-.32-.17-.6-.35-.85-.55-.24-.19-.45-.39-.63-.6.05.76.29,1.65.87,2.33.08.1.18.2.28.29.1.09.2.18.31.27.23.17.47.34.76.48.31.16.7.3,1.13.44v22.16c0,1.76-.36,2.91-1.08,3.48-.72.56-2.33.84-4.82.84v1.46h17.1v-1.46c-1.98,0-3.34-.29-4.09-.86" fill="#ff3d96"/></svg>