<?xml version="1.0" encoding="UTF-8"?><svg id="b" xmlns="http://www.w3.org/2000/svg" width="17.88" height="21.62" viewBox="0 0 17.88 21.62"><g id="c"><path d="M9.16,15.61l7.14-7.13-1.44-1.43-7.13,7.13-.82,1.83c-.05.12-.03.22.07.32.1.09.2.12.3.08l1.88-.79ZM17.59,7.17c.19-.19.29-.4.29-.64,0-.24-.09-.44-.27-.62l-.26-.25c-.16-.16-.36-.23-.59-.21-.24.02-.44.12-.62.29l-.61.6,1.44,1.44.61-.62ZM5.02,16.04c.18,0,.34-.07.48-.2s.2-.29.2-.48-.07-.34-.2-.47c-.14-.13-.29-.2-.48-.2h-1.02c-.19,0-.35.07-.48.2-.13.13-.2.29-.2.47s.07.35.2.48c.13.13.29.2.48.2h1.02ZM3.52,12.57c.13.13.29.19.48.19h3.32l1.34-1.34H4c-.19,0-.35.06-.48.19-.13.13-.2.29-.2.47s.07.34.2.47M3.52,9.46c.13.13.29.2.48.2h6.43l1.22-1.22c-.11-.08-.25-.12-.4-.12H4c-.19,0-.35.07-.48.2-.13.13-.2.29-.2.48s.07.34.2.47M14.79,5.3c.06-.07.13-.12.2-.18.07-.06.14-.11.21-.15v-.21c-.07-.76-.35-1.35-.84-1.77s-1.16-.64-2.01-.64h-.19c.03.07.05.14.06.22.01.08.02.16.02.24v.83c0,.23-.03.43-.1.59h.17c.34,0,.6.1.78.31.18.2.27.48.27.82v1.38l1.44-1.44ZM12.28,21.62c.96,0,1.69-.26,2.2-.77.51-.52.77-1.26.77-2.22v-7.29l-1.89,1.89v5.39c0,.36-.1.63-.29.83-.2.2-.48.29-.86.29H3.04c-.38,0-.66-.1-.86-.29s-.29-.47-.29-.83V5.36c0-.34.09-.61.27-.82.18-.21.44-.31.79-.31h.16c-.06-.16-.1-.36-.1-.59v-.83c0-.08,0-.16.02-.24.01-.08.03-.15.06-.22h-.19c-.93,0-1.65.26-2.14.79-.5.52-.75,1.26-.75,2.21v13.28c0,.97.26,1.71.76,2.22.51.52,1.24.77,2.2.77h9.32ZM7.07,2.51c-.15-.16-.23-.34-.23-.55s.08-.4.23-.55c.15-.15.34-.23.55-.23s.41.08.56.23c.15.15.22.34.22.55s-.08.39-.22.55c-.15.16-.34.23-.56.23s-.4-.08-.55-.23M10.32,4.66c.27,0,.49-.08.65-.24.15-.16.23-.39.23-.68v-.92c0-.29-.08-.52-.23-.68-.16-.16-.37-.24-.65-.24h-.69c-.03-.53-.24-.97-.63-1.34-.38-.37-.84-.55-1.38-.55s-.99.18-1.38.55c-.38.37-.59.81-.63,1.34h-.69c-.28,0-.49.08-.64.24s-.23.39-.23.68v.92c0,.29.08.52.23.68.15.16.37.24.64.24h5.4Z" fill="#7494c7"/></g></svg>