<?xml version="1.0" encoding="UTF-8"?><svg id="b" xmlns="http://www.w3.org/2000/svg" width="20.98" height="20.98" viewBox="0 0 20.98 20.98"><g id="c"><path d="M10.49,18.57c4.46,0,8.08-3.62,8.08-8.08S14.95,2.41,10.49,2.41,2.41,6.03,2.41,10.49s3.62,8.08,8.08,8.08" fill="#fff"/><path d="M15.55,14.37v-3.5c0-1.71-.37-3.03-2.37-3.03-.96,0-1.61.53-1.87,1.03h-.03v-.87h-1.9v6.36h1.97v-3.15c0-.83.16-1.63,1.18-1.63s1.03.95,1.03,1.69v3.1h1.97ZM8.31,5.98c0-.63-.51-1.14-1.15-1.14s-1.14.51-1.14,1.14.51,1.16,1.14,1.16,1.15-.52,1.15-1.16M8.15,8.01h-1.98v6.36h1.98v-6.36ZM20.98,10.49c0,5.79-4.7,10.49-10.49,10.49S0,16.28,0,10.49,4.7,0,10.49,0s10.49,4.69,10.49,10.49" fill="#9eb4d8"/></g></svg>