<?xml version="1.0" encoding="UTF-8"?>
<svg id="Layer_1" data-name="Layer 1" xmlns="http://www.w3.org/2000/svg" viewBox="0 0 468.74 71.84">
  <defs>
    <style>
      .cls-1 {
        fill: #575756;
      }

      .cls-2 {
        fill: #b2b2b2;
      }
    </style>
  </defs>
  <path class="cls-1" d="M21.44,13.52v1.95h-9.74v33.11h-1.95V15.47H0v-1.95h21.44Z"/>
  <path class="cls-1" d="M49.5,13.52v35.06h-1.95v-16.56h-19.97v16.56h-1.95V13.52h1.95v16.56h19.97V13.52h1.95Z"/>
  <path class="cls-1" d="M58.16,15.47v14.62h14.04v1.95h-14.04v14.6h17.94v1.95h-19.89V13.52h19.89v1.95h-17.94Z"/>
  <g>
    <path d="M119.63,5.97v50.19l-26.65-32.49v24.92h-8.29V0l26.65,32.49V5.97h8.29Z"/>
    <path d="M135.84,14.27v8.88h18.85v8.29h-18.85v8.86h18.85v8.29h-27.14V5.98h27.13v8.29h-18.84Z"/>
    <path d="M196.67,27.29c0,11.77-9.54,21.31-21.31,21.31h-12.74V5.97h12.74c11.77,0,21.31,9.54,21.31,21.31ZM188.38,27.29c0-7.19-5.83-13.02-13.02-13.02h-4.45v26.05h4.45c7.19,0,13.02-5.83,13.02-13.02Z"/>
  </g>
  <path class="cls-1" d="M213.42,24.7l-9.19,24h-4.19l13.39-34.44,13.31,34.44h-4.19l-9.14-24Z"/>
  <path class="cls-1" d="M240.43,14.76c9.37,0,16.97,7.6,16.97,16.97s-7.6,16.97-16.97,16.97h-9.44V14.76h9.44ZM240.43,44.93c7.29,0,13.2-5.91,13.2-13.2s-5.91-13.2-13.2-13.2h-5.67v26.39h5.67Z"/>
  <path class="cls-1" d="M284.48,14.76l-13.37,34.37-13.28-34.37h4.04l9.25,23.93,9.31-23.93h4.05Z"/>
  <path class="cls-1" d="M289.44,48.7V14.76h3.77v33.94h-3.77Z"/>
  <path class="cls-1" d="M319.05,39.55v.17c0,4.96-4.02,8.97-8.98,8.98h-1.6c-4.36,0-8.1-3.13-8.84-7.43l3.71-.65c.43,2.49,2.6,4.31,5.13,4.31h1.6c2.87,0,5.2-2.33,5.21-5.21v-.17c0-2.17-1.35-4.11-3.38-4.88l-6.58-2.47c-4.06-1.52-6.45-5.74-5.68-10.01s4.49-7.38,8.83-7.38h1.6c3.43-.01,6.56,1.94,8.06,5.02l-3.38,1.67c-.87-1.79-2.69-2.92-4.67-2.91h-1.6c-2.52,0-4.68,1.8-5.13,4.28s.94,4.92,3.3,5.81l6.58,2.47c3.49,1.32,5.81,4.67,5.82,8.4Z"/>
  <path class="cls-1" d="M356.43,31.73c0,9.37-7.6,16.97-16.97,16.97s-16.97-7.6-16.97-16.97,7.6-16.97,16.97-16.97c9.37.01,16.96,7.6,16.97,16.97ZM339.47,44.93c7.29,0,13.19-5.91,13.2-13.2,0-7.29-5.91-13.2-13.2-13.2s-13.2,5.91-13.2,13.2,5.91,13.2,13.2,13.2h0Z"/>
  <path class="cls-1" d="M384.87,48.7h-4.58l-10.38-15.08h-5.64v15.08h-3.77V14.76h13.2c5.06-.01,9.23,3.98,9.44,9.04s-3.63,9.38-8.67,9.78l10.4,15.12ZM373.7,29.85c2.06.05,3.98-1.01,5.02-2.79,1.04-1.77,1.04-3.97,0-5.74-1.04-1.77-2.97-2.84-5.02-2.79h-9.43v11.31h9.43Z"/>
  <g>
    <path class="cls-2" d="M199.97,56.47h2.24c1.62,0,2.36.83,2.36,2.55v.85c0,1.71-.74,2.55-2.36,2.55h-1.3v4.67h-.94v-10.61ZM202.21,61.54c.98,0,1.43-.44,1.43-1.64v-.95c0-1.18-.44-1.64-1.43-1.64h-1.3v4.23h1.3Z"/>
    <path class="cls-2" d="M209,64.73h-2.71l-.44,2.35h-.89l2.08-10.61h1.27l2.11,10.61h-.96l-.46-2.35ZM208.85,63.89l-1.21-6.27-1.18,6.27h2.4Z"/>
    <path class="cls-2" d="M211.6,56.47h2.26c1.65,0,2.35.74,2.35,2.41v.65c0,1.18-.41,1.89-1.29,2.14v.03c.92.21,1.29.93,1.29,2.18v1.93c0,.45.03.91.15,1.27h-.96c-.08-.3-.14-.64-.14-1.29v-1.95c0-1.23-.46-1.65-1.58-1.65h-1.15v4.9h-.94v-10.61ZM213.68,61.3c1.08,0,1.59-.45,1.59-1.61v-.74c0-1.15-.41-1.64-1.44-1.64h-1.29v3.99h1.14Z"/>
    <path class="cls-2" d="M219.18,57.32h-1.94v-.85h4.83v.85h-1.95v9.76h-.94v-9.76Z"/>
    <path class="cls-2" d="M225.69,64.64v-5.73c0-1.68.85-2.59,2.38-2.59s2.38.91,2.38,2.59v5.73c0,1.68-.85,2.59-2.38,2.59s-2.38-.91-2.38-2.59ZM229.51,64.7v-5.85c0-1.14-.51-1.68-1.44-1.68s-1.44.55-1.44,1.68v5.85c0,1.14.51,1.67,1.44,1.67s1.44-.53,1.44-1.67Z"/>
    <path class="cls-2" d="M231.84,56.47h4.11v.85h-3.17v3.94h2.58v.85h-2.58v4.97h-.94v-10.61Z"/>
    <path class="cls-2" d="M241.15,57.32h-1.94v-.85h4.83v.85h-1.95v9.76h-.94v-9.76Z"/>
    <path class="cls-2" d="M245.23,56.47h.94v4.65h2.9v-4.65h.94v10.61h-.94v-5.11h-2.9v5.11h-.94v-10.61Z"/>
    <path class="cls-2" d="M251.46,56.47h4.24v.85h-3.3v3.8h2.71v.85h-2.71v4.24h3.3v.86h-4.24v-10.61Z"/>
    <path class="cls-2" d="M259.24,64.62v-5.7c0-1.64.85-2.61,2.45-2.61s2.46.97,2.46,2.61v1.12h-1.58v-1.23c0-.7-.33-.98-.83-.98s-.83.29-.83.98v5.93c0,.7.33.97.83.97s.83-.27.83-.97v-1.55h1.58v1.43c0,1.64-.85,2.61-2.46,2.61s-2.45-.97-2.45-2.61Z"/>
    <path class="cls-2" d="M265.15,56.47h1.67v4.32h1.79v-4.32h1.67v10.61h-1.67v-4.77h-1.79v4.77h-1.67v-10.61Z"/>
    <path class="cls-2" d="M274.93,65h-1.93l-.29,2.08h-1.55l1.73-10.61h2.26l1.73,10.61h-1.67l-.29-2.08ZM274.71,63.56l-.76-5.35-.74,5.35h1.5Z"/>
    <path class="cls-2" d="M277.78,56.47h2.35l1.11,7.7,1.11-7.7h2.35v10.61h-1.58v-8.03l-1.24,8.03h-1.39l-1.24-8.03v8.03h-1.45v-10.61Z"/>
    <path class="cls-2" d="M285.88,56.47h2.46c1.67,0,2.49.93,2.49,2.62v1.05c0,1.7-.82,2.62-2.49,2.62h-.79v4.32h-1.67v-10.61ZM288.33,61.24c.53,0,.82-.24.82-1v-1.26c0-.76-.29-1-.82-1h-.79v3.26h.79Z"/>
    <path class="cls-2" d="M291.77,56.47h1.67v10.61h-1.67v-10.61Z"/>
    <path class="cls-2" d="M294.53,64.56v-5.58c0-1.7.89-2.67,2.53-2.67s2.53.97,2.53,2.67v5.58c0,1.7-.89,2.67-2.53,2.67s-2.53-.97-2.53-2.67ZM297.92,64.67v-5.79c0-.76-.33-1.05-.86-1.05s-.86.29-.86,1.05v5.79c0,.76.33,1.05.86,1.05s.86-.29.86-1.05Z"/>
    <path class="cls-2" d="M300.68,56.47h2.06l1.68,6.35v-6.35h1.49v10.61h-1.68l-2.06-7.74v7.74h-1.48v-10.61Z"/>
    <path class="cls-2" d="M306.89,64.56v-.61h1.58v.73c0,.76.33,1.03.86,1.03s.88-.27.88-1.06c0-.88-.36-1.42-1.45-2.38-1.39-1.23-1.86-2.11-1.86-3.32,0-1.67.86-2.64,2.49-2.64s2.42.97,2.42,2.67v.44h-1.58v-.55c0-.76-.3-1.05-.83-1.05s-.85.29-.85,1.02c0,.77.38,1.32,1.47,2.27,1.39,1.23,1.85,2.09,1.85,3.41,0,1.73-.88,2.7-2.52,2.7s-2.45-.97-2.45-2.67Z"/>
    <path class="cls-2" d="M315.83,65.06v-6.47c0-1.27.43-1.94,1.95-1.94h.41v1.06h-.34c-.45,0-.74.14-.74.88v6.47c0,.6.17.88.74.88h.34v1.06h-.41c-1.26,0-1.95-.41-1.95-1.94Z"/>
    <path class="cls-2" d="M319.08,64.25v-6.91h1.42v7.02c0,.65.27.88.73.88s.73-.23.73-.88v-7.02h1.37v6.91c0,1.45-.72,2.28-2.12,2.28s-2.12-.83-2.12-2.28Z"/>
    <path class="cls-2" d="M326.3,62.42l-.58,1.14v2.85h-1.42v-9.06h1.42v3.9l1.79-3.9h1.45l-1.7,3.33,1.72,5.73h-1.49l-1.19-3.99Z"/>
    <path class="cls-2" d="M329.69,65.95h.34c.45,0,.74-.14.74-.88v-6.47c0-.61-.17-.88-.74-.88h-.34v-1.06h.43c1.24,0,1.94.4,1.94,1.94v6.47c0,1.27-.43,1.94-1.94,1.94h-.43v-1.06Z"/>
    <path class="cls-2" d="M336.02,56.47h2.46c1.67,0,2.49.93,2.49,2.62v1.05c0,1.7-.82,2.62-2.49,2.62h-.79v4.32h-1.67v-10.61ZM338.47,61.24c.53,0,.82-.24.82-1v-1.26c0-.76-.29-1-.82-1h-.79v3.26h.79Z"/>
    <path class="cls-2" d="M341.91,56.47h1.67v9.09h2.74v1.52h-4.41v-10.61Z"/>
    <path class="cls-2" d="M347.14,64.62v-5.7c0-1.64.85-2.61,2.46-2.61s2.45.97,2.45,2.61v1.12h-1.58v-1.23c0-.7-.33-.98-.83-.98s-.83.29-.83.98v5.93c0,.7.33.97.83.97s.83-.27.83-.97v-1.55h1.58v1.43c0,1.64-.85,2.61-2.45,2.61s-2.46-.97-2.46-2.61Z"/>
    <path class="cls-2" d="M356.03,64.64v-5.73c0-1.68.82-2.59,2.35-2.59s2.36.91,2.36,2.59v.83h-.89v-.89c0-1.14-.52-1.68-1.45-1.68s-1.42.55-1.42,1.68v5.85c0,1.15.51,1.67,1.42,1.67s1.45-.52,1.45-1.67v-2.52h-1.33v-.86h2.23v3.32c0,1.68-.82,2.59-2.36,2.59s-2.35-.91-2.35-2.59Z"/>
    <path class="cls-2" d="M362.09,56.47h2.26c1.65,0,2.35.74,2.35,2.41v.65c0,1.18-.41,1.89-1.29,2.14v.03c.92.21,1.29.93,1.29,2.18v1.93c0,.45.03.91.15,1.27h-.96c-.08-.3-.14-.64-.14-1.29v-1.95c0-1.23-.45-1.65-1.58-1.65h-1.15v4.9h-.94v-10.61ZM364.17,61.3c1.08,0,1.59-.45,1.59-1.61v-.74c0-1.15-.41-1.64-1.44-1.64h-1.29v3.99h1.14Z"/>
    <path class="cls-2" d="M368.02,64.64v-5.73c0-1.68.85-2.59,2.38-2.59s2.38.91,2.38,2.59v5.73c0,1.68-.85,2.59-2.38,2.59s-2.38-.91-2.38-2.59ZM371.84,64.7v-5.85c0-1.14-.52-1.68-1.44-1.68s-1.44.55-1.44,1.68v5.85c0,1.14.51,1.67,1.44,1.67s1.44-.53,1.44-1.67Z"/>
    <path class="cls-2" d="M374.13,64.64v-8.17h.94v8.23c0,1.14.51,1.67,1.42,1.67s1.43-.53,1.43-1.67v-8.23h.91v8.17c0,1.67-.82,2.59-2.35,2.59s-2.35-.92-2.35-2.59Z"/>
    <path class="cls-2" d="M380.26,56.47h2.24c1.62,0,2.36.83,2.36,2.55v.85c0,1.71-.74,2.55-2.36,2.55h-1.3v4.67h-.94v-10.61ZM382.51,61.54c.98,0,1.42-.44,1.42-1.64v-.95c0-1.18-.44-1.64-1.42-1.64h-1.3v4.23h1.3Z"/>
  </g>
</svg>