<?xml version="1.0" encoding="UTF-8"?><svg id="b" xmlns="http://www.w3.org/2000/svg" width="22.32" height="19.03" viewBox="0 0 22.32 19.03"><g id="c"><path d="M14.56,7.66v-2.42c0-.17.09-.27.26-.31l2.95-.55c.18-.03.26.05.26.24v2.85c0,.16-.09.26-.26.27l-2.95.22c-.18.01-.27-.08-.27-.29M17.78,12.48l-2.95-.17c-.18,0-.27-.1-.27-.29v-2.65c0-.19.09-.29.27-.3l2.95-.16c.18-.01.26.08.26.27v3.03c0,.19-.09.28-.26.26M17.77,13.66c.18.02.27.11.27.29v2.82c0,.19-.09.27-.26.24l-2.95-.57c-.18-.04-.26-.14-.26-.31v-2.43c0-.19.09-.27.27-.25l2.94.21ZM19.3,3.09c0-.1-.04-.19-.1-.24-.07-.06-.16-.07-.26-.06l-5.29,1.18c-.21.04-.32.16-.32.35v12.73c0,.19.1.31.32.36l5.28,1.17c.11.02.2,0,.27-.06.07-.06.1-.14.1-.24V3.09ZM4.53,7.73c-.17-.02-.26-.11-.26-.27v-2.85c0-.19.09-.27.26-.24l2.95.55c.18.03.26.14.26.31v2.42c0,.21-.09.3-.27.29l-2.95-.22ZM4.27,9.18c0-.19.09-.28.26-.27l2.94.16c.18.01.27.11.27.3v2.65c0,.19-.09.28-.27.29l-2.94.17c-.18.01-.26-.08-.26-.26v-3.03ZM7.75,13.7v2.43c0,.17-.09.27-.26.31l-2.95.57c-.18.03-.26-.04-.26-.24v-2.82c0-.18.09-.27.26-.29l2.93-.21c.19-.02.28.07.28.25M3.12,18.53c.07.06.16.08.27.06l5.27-1.17c.22-.05.33-.17.33-.36V4.33c0-.19-.11-.31-.32-.35l-5.29-1.18c-.11-.02-.2,0-.27.06-.07.06-.1.14-.1.24v15.2c0,.1.03.18.11.24M1.67,18.74c.19-.19.29-.42.29-.69V2.44c0-.33.16-.49.47-.49h17.46c.32,0,.47.17.47.49v15.61c0,.27.1.5.29.69.19.19.42.29.69.29s.51-.1.7-.29c.19-.19.29-.42.29-.69V2.22c0-.68-.2-1.22-.61-1.62-.41-.4-.96-.6-1.66-.6H2.26c-.69,0-1.24.2-1.65.6-.41.4-.61.94-.61,1.62v15.83c0,.27.1.5.29.69.19.19.42.29.69.29s.5-.1.69-.29" fill="#7494c7"/></g></svg>