<?xml version="1.0" encoding="UTF-8"?><svg id="b" xmlns="http://www.w3.org/2000/svg" width="20.98" height="20.98" viewBox="0 0 20.98 20.98"><g id="c"><path d="M10.49,19.29c4.86,0,8.81-3.94,8.81-8.81S15.35,1.68,10.49,1.68,1.68,5.63,1.68,10.49s3.94,8.81,8.81,8.81" fill="#fff"/><path d="M16.98,16.56l-5.3-7.08,4.7-5.07h-1.14l-4.07,4.39-3.29-4.39h-3.86l5.01,6.7-5.04,5.45h1.14l4.42-4.77,3.57,4.77h3.86ZM20.98,10.49c0,5.79-4.7,10.49-10.49,10.49S0,16.28,0,10.49,4.7,0,10.49,0s10.49,4.7,10.49,10.49M7.47,5.25l7.84,10.48h-1.77L5.7,5.25h1.78Z" fill="#9eb4d8"/></g></svg>